<?xml version="1.0" standalone="no"?>
<!DOCTYPE svg PUBLIC "-//W3C//DTD SVG 20010904//EN"
 "http://www.w3.org/TR/2001/REC-SVG-20010904/DTD/svg10.dtd">
<svg version="1.0" xmlns="http://www.w3.org/2000/svg"
 width="512.000000pt" height="512.000000pt" viewBox="0 0 512.000000 512.000000"
 preserveAspectRatio="xMidYMid meet">

<g transform="translate(0.000000,512.000000) scale(0.100000,-0.100000)"
fill="#000000" stroke="none">
<path d="M2290 5114 c-25 -2 -106 -8 -180 -14 -345 -28 -675 -92 -962 -186
-122 -40 -163 -65 -192 -114 -20 -34 -21 -50 -24 -653 -2 -434 1 -630 9 -659
17 -65 69 -109 167 -143 45 -16 79 -32 75 -35 -5 -4 -117 -26 -250 -49 l-241
-42 -43 46 c-24 26 -66 59 -94 73 -43 23 -62 27 -140 27 -78 0 -97 -4 -140
-27 -60 -32 -114 -87 -146 -148 -22 -42 -24 -59 -27 -228 -4 -203 -1 -220 54
-273 l34 -33 0 -174 c0 -170 -1 -175 -24 -203 -44 -52 -69 -135 -64 -215 5
-73 34 -148 70 -181 16 -15 18 -36 18 -218 l0 -202 -40 -32 c-103 -82 -150
-202 -150 -379 0 -141 17 -188 84 -227 l43 -25 288 0 c271 0 289 1 324 21 20
11 48 36 61 56 23 33 25 48 28 154 6 186 -36 302 -140 393 l-48 41 0 199 c0
195 0 199 24 227 36 42 66 132 66 194 0 62 -30 152 -66 194 -23 28 -24 33 -24
203 l0 174 31 30 c17 16 38 44 45 61 8 19 24 35 37 38 48 12 522 93 525 90 2
-2 61 -338 133 -746 153 -882 143 -835 175 -876 35 -46 74 -63 155 -70 l69 -6
-2 -211 -3 -211 -140 -6 c-186 -8 -262 -37 -358 -133 -98 -97 -132 -182 -143
-356 l-7 -110 -112 0 c-95 0 -116 -3 -136 -19 -32 -26 -32 -86 0 -112 22 -18
65 -19 1210 -19 1280 1 1209 -2 1231 54 11 31 -7 79 -35 90 -9 3 -462 6 -1006
6 l-989 0 0 100 c0 152 41 237 146 302 79 50 64 49 1114 46 l985 -3 56 -26
c66 -31 120 -84 151 -148 19 -38 24 -66 26 -158 l4 -113 -130 0 c-116 0 -132
-2 -156 -21 -34 -27 -35 -71 -1 -104 l24 -25 324 0 c302 0 326 1 348 19 32 26
32 86 0 112 -20 16 -41 19 -136 19 l-112 0 -7 108 c-10 173 -45 261 -143 358
-96 96 -172 125 -358 133 l-140 6 -3 211 -2 211 69 6 c38 3 83 13 100 21 32
17 75 68 85 102 3 11 67 368 140 793 74 425 136 774 138 776 3 3 476 -78 525
-90 13 -3 29 -19 37 -38 7 -17 28 -45 45 -61 l31 -30 0 -174 c0 -170 -1 -175
-24 -203 -36 -42 -66 -132 -66 -194 0 -62 30 -152 66 -194 24 -28 24 -32 24
-227 l0 -199 -48 -41 c-104 -91 -146 -207 -140 -393 3 -106 5 -121 28 -154 13
-20 41 -45 61 -56 35 -20 53 -21 324 -21 l288 0 43 25 c67 39 84 86 84 227 0
177 -47 297 -150 379 l-40 32 0 202 c0 182 2 203 18 218 36 33 65 108 70 181
5 80 -20 163 -64 215 -23 28 -24 33 -24 203 l0 174 34 33 c55 53 58 70 54 273
-3 176 -4 185 -30 233 -32 60 -87 114 -148 146 -38 20 -60 24 -135 24 -78 0
-97 -4 -140 -27 -28 -14 -70 -47 -94 -73 l-43 -46 -241 42 c-133 23 -245 45
-250 49 -4 3 30 19 75 35 98 34 150 78 167 143 8 29 11 225 9 659 -3 603 -4
619 -24 653 -29 49 -70 74 -192 114 -270 89 -543 144 -897 181 -140 15 -679
28 -785 19z m765 -168 c259 -28 401 -51 615 -103 163 -39 351 -100 362 -117 4
-6 8 -279 8 -607 0 -465 -3 -599 -12 -607 -7 -5 -57 -24 -112 -41 -404 -129
-844 -191 -1356 -191 -512 0 -952 62 -1356 191 -55 17 -105 36 -111 41 -10 8
-13 142 -13 607 0 328 4 601 8 607 10 16 194 76 344 113 263 65 519 102 868
125 118 8 622 -4 755 -18z m-1532 -1715 c318 -70 641 -102 1037 -102 398 0
708 30 1038 102 79 17 145 29 148 26 3 -2 -70 -433 -161 -956 -91 -523 -165
-953 -165 -956 0 -3 -387 -5 -859 -5 l-859 0 -6 28 c-3 15 -76 432 -161 927
-86 495 -158 915 -161 933 -4 20 -2 32 5 32 6 0 71 -13 144 -29z m-1010 -44
c58 -44 67 -76 67 -241 0 -143 0 -146 -22 -151 -13 -3 -86 -4 -163 -3 l-140 3
-3 135 c-2 74 0 149 3 167 7 40 49 91 90 109 47 22 127 13 168 -19z m4290 0
c60 -45 68 -76 65 -244 l-3 -148 -160 0 -160 0 0 161 c0 159 0 161 27 196 38
50 82 69 145 65 36 -2 62 -11 86 -30z m-3564 -89 c6 -34 9 -63 7 -65 -2 -2
-104 -22 -227 -43 -123 -22 -236 -42 -251 -46 -26 -5 -26 -5 -30 60 -1 37 -3
66 -3 66 0 1 480 88 486 89 4 1 12 -27 18 -61z m2871 22 c96 -17 198 -35 225
-41 l50 -9 -3 -66 c-4 -65 -4 -65 -30 -60 -15 4 -128 24 -251 46 -123 21 -225
41 -227 43 -2 2 1 31 7 65 10 56 13 61 33 57 11 -2 100 -18 196 -35z m-3630
-600 l0 -120 -65 0 -65 0 0 120 0 120 65 0 65 0 0 -120z m4290 0 l0 -120 -65
0 -65 0 0 120 0 120 65 0 65 0 0 -120z m-4280 -290 c60 -31 85 -73 85 -147 0
-103 -56 -158 -160 -158 -69 0 -99 15 -139 69 -33 43 -30 141 6 188 51 67 134
86 208 48z m4313 -13 c92 -70 88 -200 -7 -271 -21 -16 -42 -21 -91 -21 -69 0
-99 15 -139 69 -31 41 -29 139 2 184 54 75 164 93 235 39z m-4323 -568 l0
-119 -65 0 -65 0 0 119 0 120 65 0 65 0 0 -120z m4290 0 l0 -119 -65 0 -65 0
0 119 0 120 65 0 65 0 0 -120z m-4244 -298 c22 -10 57 -35 77 -56 55 -57 72
-111 72 -235 l0 -105 -92 -3 -93 -3 0 120 c0 141 -11 165 -75 165 -64 0 -75
-24 -75 -165 l0 -120 -92 3 -93 3 -3 80 c-2 44 2 103 8 132 36 166 208 253
366 184z m4290 0 c22 -10 57 -35 77 -56 55 -57 72 -111 72 -235 l0 -105 -92
-3 -93 -3 0 120 c0 141 -11 165 -75 165 -64 0 -75 -24 -75 -165 l0 -120 -92 3
-93 3 -3 80 c-2 44 2 103 8 132 36 166 208 253 366 184z m-1656 -236 l0 -65
-519 0 c-534 0 -571 -3 -591 -40 -19 -35 -12 -77 16 -99 26 -21 36 -21 560
-21 l534 0 0 -63 0 -64 -97 -6 c-54 -4 -324 -7 -600 -7 l-503 0 0 215 0 215
600 0 600 0 0 -65z"/>
<path d="M1616 4705 c-70 -29 -128 -81 -164 -150 -23 -43 -27 -62 -27 -140 0
-76 4 -97 25 -139 32 -62 88 -118 148 -148 l47 -23 625 -3 c344 -1 635 0 648
3 26 6 52 57 45 86 -3 10 -14 26 -25 36 -19 17 -59 18 -643 23 -610 5 -624 5
-651 26 -53 39 -69 70 -69 137 0 74 25 116 85 147 33 17 59 20 158 20 106 0
122 2 146 21 33 26 36 79 6 109 -18 18 -33 20 -157 20 -123 0 -144 -3 -197
-25z"/>
<path d="M2160 4710 c-30 -30 -27 -83 6 -109 26 -21 35 -21 638 -21 l612 0 44
-22 c112 -57 120 -205 16 -282 -24 -18 -46 -22 -176 -26 -127 -4 -151 -8 -169
-24 -28 -25 -28 -79 0 -107 19 -19 30 -20 182 -17 183 3 221 15 294 87 67 67
88 122 88 226 0 78 -4 97 -27 140 -35 68 -102 128 -172 154 -56 21 -68 21
-686 21 -617 0 -630 0 -650 -20z"/>
<path d="M2195 3901 c-39 -16 -47 -37 -43 -108 8 -139 102 -273 236 -336 62
-30 75 -32 172 -32 97 0 110 2 172 32 136 64 229 198 236 338 6 116 28 110
-397 112 -196 1 -365 -2 -376 -6z m615 -154 c0 -22 -56 -101 -90 -125 -92 -68
-228 -68 -320 0 -34 24 -90 103 -90 125 0 10 49 13 250 13 201 0 250 -3 250
-13z"/>
<path d="M2335 2920 c-56 -37 -65 -69 -65 -227 l0 -143 -137 0 c-114 0 -145
-4 -180 -19 -72 -33 -78 -56 -78 -276 0 -212 4 -226 68 -265 28 -17 51 -20
179 -20 l147 0 3 -154 c3 -173 11 -194 79 -228 50 -26 368 -26 418 0 68 34 76
55 79 228 l3 154 147 0 c128 0 151 3 179 20 64 39 68 53 68 265 0 220 -6 243
-78 276 -35 15 -66 19 -179 19 l-138 0 0 141 c0 160 -10 195 -65 229 -30 18
-49 20 -226 20 -176 0 -197 -2 -224 -20z m356 -282 c0 -168 10 -215 49 -235
17 -9 77 -13 188 -13 l162 0 0 -135 0 -135 -173 0 -174 0 -24 -26 c-23 -25
-24 -32 -27 -195 l-4 -169 -128 0 -128 0 -4 169 c-3 163 -4 170 -27 195 l-24
26 -174 0 -173 0 0 135 0 135 159 0 c88 0 171 4 185 10 48 18 55 51 56 273 l0
117 130 0 130 0 1 -152z"/>
<path d="M360 2138 c-20 -22 -26 -61 -14 -93 10 -26 63 -45 93 -34 80 31 61
149 -24 149 -22 0 -41 -8 -55 -22z"/>
<path d="M4650 2138 c-57 -61 9 -155 86 -123 76 31 51 145 -31 145 -22 0 -41
-8 -55 -22z"/>
</g>
</svg>
