<?xml version="1.0" standalone="no"?>
<!DOCTYPE svg PUBLIC "-//W3C//DTD SVG 20010904//EN"
 "http://www.w3.org/TR/2001/REC-SVG-20010904/DTD/svg10.dtd">
<svg version="1.0" xmlns="http://www.w3.org/2000/svg"
 width="511.000000pt" height="381.000000pt" viewBox="0 0 511.000000 381.000000"
 preserveAspectRatio="xMidYMid meet">

<g transform="translate(0.000000,381.000000) scale(0.100000,-0.100000)"
fill="#000000" stroke="none">
<path d="M1187 3794 c3 -9 -5 -26 -19 -42 -13 -15 -35 -47 -48 -72 -22 -40
-24 -56 -23 -160 1 -116 -7 -151 -41 -179 -14 -12 -16 -9 -16 22 0 20 5 39 10
42 14 9 13 48 -2 63 -7 7 -21 12 -33 12 -12 0 -26 -5 -33 -12 -17 -17 -15 -65
4 -72 12 -4 14 -19 12 -63 -2 -31 -7 -58 -13 -60 -11 -3 -40 55 -49 99 -4 17
-18 34 -36 43 -38 20 -40 19 -40 -8 0 -12 -12 -40 -27 -62 -31 -46 -40 -112
-25 -195 6 -30 16 -85 23 -122 6 -36 8 -79 5 -95 -7 -27 -8 -27 -22 -8 -15 20
-16 19 -45 -14 -38 -41 -53 -31 -54 37 0 45 -1 47 -31 50 -43 4 -52 -28 -18
-65 27 -29 47 -92 38 -117 -9 -24 -17 -20 -39 20 -24 44 -60 74 -91 74 -28 0
-28 -1 -13 -34 9 -19 8 -40 -6 -95 -9 -38 -13 -76 -9 -83 4 -6 9 -34 10 -60 2
-37 10 -59 37 -95 19 -27 42 -64 50 -84 8 -20 20 -40 26 -43 6 -4 11 -21 11
-38 0 -30 -1 -30 -18 -14 -18 15 -19 14 -31 -26 l-13 -43 -19 35 c-11 21 -16
46 -13 62 7 35 -33 66 -65 49 -44 -24 -36 -68 17 -94 19 -9 29 -25 39 -62 22
-86 18 -92 -26 -52 -42 38 -105 57 -123 39 -8 -8 -7 -13 5 -18 14 -5 17 -20
17 -73 0 -49 5 -74 20 -96 11 -16 20 -44 20 -61 0 -44 55 -122 114 -161 54
-37 114 -105 96 -111 -6 -2 -19 3 -29 12 -10 9 -25 16 -34 16 -14 0 -14 -3 -1
-27 15 -30 19 -93 6 -93 -15 0 -46 40 -57 73 -9 28 -15 32 -45 32 -38 0 -47
-16 -36 -61 5 -19 13 -24 40 -24 28 0 42 -8 75 -47 43 -48 47 -62 12 -44 -11
6 -35 11 -53 12 -18 0 -54 1 -80 2 -57 2 -70 -9 -41 -31 12 -9 36 -45 53 -78
26 -54 40 -68 103 -109 69 -44 75 -46 134 -43 58 4 61 3 47 -13 -9 -10 -26
-20 -39 -23 -34 -9 -37 -30 -11 -88 13 -29 27 -70 30 -90 6 -36 5 -38 -41 -64
-63 -37 -82 -64 -45 -64 9 0 28 -9 42 -20 14 -11 33 -20 42 -20 31 0 88 -33
88 -50 0 -9 22 -36 49 -58 77 -65 119 -74 142 -31 6 12 21 19 40 19 17 0 39 5
50 10 13 8 34 6 73 -5 59 -17 77 -40 49 -61 -17 -12 -16 -13 10 -23 15 -6 27
-15 27 -20 0 -13 -58 -29 -95 -27 -24 1 -31 -4 -39 -27 -9 -24 -7 -31 9 -43
26 -20 32 -18 63 16 33 36 82 49 101 26 7 -8 10 -19 7 -24 -6 -10 -66 -29
-118 -37 -25 -4 -38 -11 -38 -21 0 -8 5 -12 11 -8 6 3 25 -7 42 -23 58 -54 89
-73 119 -73 16 0 43 -7 60 -16 22 -11 43 -14 80 -9 27 4 72 8 98 9 33 1 59 9
79 24 17 12 44 22 60 22 55 0 82 -22 41 -33 -31 -8 -24 -27 10 -27 17 0 30 -4
30 -10 0 -13 -79 -35 -113 -31 -34 3 -57 -14 -57 -43 0 -52 60 -64 84 -17 15
28 59 51 99 51 26 0 97 -21 97 -29 -1 -3 -23 -16 -49 -29 -45 -21 -101 -81
-101 -109 0 -6 23 -20 51 -32 44 -19 61 -21 132 -16 118 10 164 22 213 56 69
47 172 99 198 99 13 0 38 -6 56 -14 l32 -13 -73 -38 c-41 -21 -107 -60 -147
-87 -41 -28 -108 -66 -150 -86 -70 -34 -86 -37 -179 -40 -57 -2 -103 -6 -103
-9 0 -4 11 -21 26 -40 l25 -33 97 1 c105 0 105 1 -3 43 l-40 15 57 -4 c44 -4
65 0 88 13 16 11 27 22 22 27 -4 4 1 6 10 2 10 -3 19 0 22 9 3 9 10 13 15 10
13 -8 42 4 36 14 -3 5 3 11 14 15 16 5 30 15 77 54 7 5 15 7 18 4 3 -4 6 -1 6
5 0 6 9 14 20 17 11 3 52 26 92 50 40 24 76 41 80 39 19 -12 5 -36 -29 -52
-21 -9 -40 -19 -43 -22 -3 -3 -23 -17 -45 -32 -22 -14 -53 -38 -70 -52 -16
-14 -35 -30 -42 -36 -7 -5 -15 -10 -18 -10 -3 0 -17 -11 -30 -24 -13 -14 -34
-27 -45 -31 -11 -3 -20 -11 -20 -16 0 -6 -4 -7 -10 -4 -5 3 -10 1 -10 -4 0 -6
-5 -10 -11 -8 -6 1 -14 -4 -16 -10 -3 -7 1 -13 9 -13 15 0 144 90 223 155 57
47 109 79 145 90 24 7 24 7 9 -11 -9 -11 -29 -43 -45 -72 -36 -69 -80 -106
-146 -126 -76 -23 -92 -36 -45 -36 23 0 36 4 32 10 -3 6 0 10 8 10 7 0 36 11
63 25 27 14 51 25 53 25 10 0 -26 -33 -44 -40 -15 -7 -16 -9 -4 -9 20 -1 71
48 63 60 -3 5 1 18 9 30 14 20 16 20 26 2 11 -19 12 -19 17 14 2 13 6 33 8 45
2 13 4 29 5 37 2 23 38 -15 44 -47 6 -34 -5 -56 -56 -109 -22 -24 -37 -46 -33
-50 4 -5 30 17 57 47 43 48 48 60 49 101 0 25 7 54 15 65 15 19 15 19 30 0 8
-11 15 -39 15 -63 0 -36 7 -50 47 -95 25 -29 54 -55 62 -56 9 -2 -8 21 -38 52
-48 49 -55 60 -56 100 -1 25 2 43 6 40 5 -3 9 2 9 10 0 22 30 20 31 -1 6 -92
15 -118 31 -90 7 14 15 10 51 -27 31 -33 55 -48 92 -57 39 -10 45 -14 29 -20
-14 -6 -9 -8 19 -8 53 -1 38 15 -31 35 -65 18 -103 49 -139 114 -14 25 -34 57
-45 73 -10 15 -14 27 -8 27 21 0 86 -38 130 -77 25 -22 67 -55 94 -74 26 -19
69 -49 94 -66 52 -37 89 -46 56 -14 -10 10 -21 17 -23 15 -3 -3 -59 33 -71 46
-3 3 -23 18 -45 35 -22 16 -45 34 -51 40 -6 5 -22 17 -34 25 -12 8 -29 22 -38
30 -8 8 -33 22 -54 32 -35 16 -66 59 -48 66 5 2 37 -15 72 -36 35 -22 74 -43
86 -46 12 -4 22 -11 22 -16 0 -5 8 -11 19 -15 18 -5 47 -27 85 -62 14 -13 17
-14 12 -3 -4 8 -1 7 7 -3 14 -17 32 -24 66 -26 8 -1 11 -4 8 -7 -3 -4 5 -16
19 -26 17 -14 33 -18 50 -14 16 4 23 3 19 -3 -3 -6 16 -4 42 4 26 8 50 15 53
14 14 0 -68 -38 -85 -39 -11 0 -31 -7 -45 -15 -23 -13 -17 -14 72 -15 l97 0
25 32 c13 18 23 35 21 39 -3 3 -46 7 -96 8 -108 1 -162 21 -304 113 -49 32
-96 56 -103 53 -7 -3 -11 -1 -7 4 3 5 -25 26 -61 46 -72 40 -73 53 -8 62 31 4
52 -2 104 -29 36 -18 82 -46 102 -61 49 -38 104 -53 220 -62 84 -6 101 -5 142
13 25 12 46 24 46 27 0 36 -73 111 -118 121 -46 11 -46 16 2 36 61 27 109 18
151 -28 32 -35 62 -43 83 -22 30 30 1 72 -52 75 -53 3 -109 18 -108 28 1 6 16
12 33 15 26 4 29 7 18 16 -8 6 -21 14 -29 16 -11 4 -7 9 13 17 41 16 65 14 99
-11 37 -26 230 -48 260 -29 10 6 32 11 48 11 38 0 77 20 110 55 14 15 38 33
55 40 l30 13 -25 10 c-14 6 -53 18 -88 28 -62 17 -63 18 -44 37 26 25 74 15
97 -19 21 -33 68 -30 73 4 5 33 -17 55 -47 49 -14 -3 -41 1 -60 7 l-34 12 26
21 c31 24 33 30 11 35 -14 3 -14 6 3 26 39 49 172 45 226 -6 13 -12 30 -22 39
-22 21 0 143 99 143 116 0 18 58 54 86 54 12 0 32 9 46 20 14 11 32 20 40 20
29 0 7 34 -37 57 -25 13 -48 27 -52 31 -9 9 13 94 38 146 l19 38 -27 22 c-15
11 -36 28 -48 36 -20 14 -17 15 47 15 60 0 75 4 118 32 87 56 93 62 120 120
15 31 37 65 49 74 20 17 20 18 2 25 -32 12 -175 -2 -205 -21 -25 -15 41 65 70
86 16 11 33 18 39 14 19 -12 50 15 50 44 0 34 -21 54 -52 49 -16 -2 -24 -11
-26 -29 -2 -15 -17 -39 -34 -55 l-31 -29 6 62 c5 67 2 69 -50 35 -13 -8 -23
-11 -23 -7 0 23 47 77 95 109 65 43 112 104 120 155 4 20 16 53 27 74 16 31
19 52 16 99 -3 44 -1 61 9 65 7 3 13 10 13 15 0 7 -18 9 -47 5 -38 -4 -53 -12
-74 -36 -14 -17 -29 -31 -33 -31 -5 0 -5 21 -1 48 12 84 15 92 49 100 24 6 32
14 34 36 4 34 -13 56 -43 56 -29 0 -48 -24 -40 -49 3 -12 -2 -36 -14 -58 l-19
-38 -11 28 c-6 16 -11 33 -11 38 0 5 -4 9 -10 9 -5 0 -10 -4 -10 -10 0 -15
-17 -12 -23 4 -7 16 10 49 84 171 30 49 38 73 44 133 4 48 2 91 -6 123 -9 36
-10 57 -2 84 9 29 9 35 -3 35 -41 0 -114 -67 -114 -105 0 -9 -6 -15 -12 -12
-8 3 -12 21 -11 52 1 36 8 54 27 74 30 31 33 53 11 71 -25 21 -68 -3 -59 -33
9 -31 9 -29 0 -54 -10 -30 -17 -29 -51 7 -25 27 -29 28 -40 13 -11 -15 -13
-15 -24 5 -12 22 -7 69 19 182 28 122 25 165 -15 224 -14 20 -25 51 -25 67 l0
31 -31 -19 c-18 -10 -35 -25 -39 -33 -4 -8 -14 -30 -23 -48 -9 -19 -17 -42
-17 -53 0 -25 -16 -24 -30 0 -18 35 -12 99 10 111 38 20 15 90 -29 90 -28 0
-44 -26 -36 -57 22 -88 16 -113 -17 -75 -22 24 -31 82 -29 186 1 95 -15 148
-66 209 -13 16 -23 37 -23 48 0 10 -3 19 -7 18 -18 -1 -55 -63 -60 -100 -5
-32 -9 -39 -22 -33 -9 4 -45 18 -81 31 -36 13 -69 29 -74 34 -19 18 -26 9 -26
-33 0 -24 11 -66 24 -94 l24 -52 -35 -5 c-39 -7 -123 -53 -123 -67 0 -6 8 -10
18 -10 9 0 35 -12 57 -25 22 -14 49 -25 60 -25 11 0 32 -8 45 -17 67 -47 135
-73 195 -73 33 0 72 -7 88 -14 29 -16 35 -9 15 13 -10 11 -10 12 -1 7 7 -4 18
-16 24 -28 8 -15 8 -19 0 -14 -6 4 -11 2 -11 -5 0 -10 -3 -10 -12 -1 -15 15
-74 16 -83 2 -4 -6 -1 -17 5 -25 23 -28 -44 -18 -70 10 -42 45 -94 15 -74 -42
10 -30 48 -43 67 -24 6 6 33 11 60 11 49 0 52 -3 61 -48 1 -2 -21 -5 -49 -6
-27 -1 -68 -10 -90 -20 l-39 -17 61 -29 c48 -23 68 -39 87 -73 16 -27 41 -51
68 -65 24 -12 61 -33 83 -47 26 -15 56 -24 83 -25 59 0 82 -14 82 -50 0 -57
-7 -61 -58 -35 -26 13 -55 33 -64 44 -31 36 -78 21 -78 -24 0 -39 50 -61 77
-34 8 8 23 5 55 -12 35 -20 44 -30 46 -56 l3 -32 -35 14 c-40 17 -186 21 -186
5 0 -5 15 -25 34 -43 22 -22 40 -54 50 -90 10 -33 24 -61 36 -67 10 -5 22 -19
25 -30 3 -11 14 -20 24 -20 10 0 26 -9 36 -20 10 -11 27 -20 38 -20 16 0 12 6
-18 30 -21 17 -43 30 -49 30 -19 0 -68 70 -82 117 -7 24 -23 58 -35 75 l-22
30 76 -3 c56 -3 81 -9 96 -23 11 -10 19 -22 16 -25 -17 -28 49 -164 97 -199
19 -14 26 -38 8 -27 -6 4 -33 33 -60 66 -40 48 -50 67 -50 97 0 20 -5 44 -10
52 -6 10 -7 3 -3 -24 l6 -38 -47 47 c-26 26 -50 44 -54 41 -3 -4 4 -13 16 -22
30 -21 91 -109 66 -96 -11 6 -30 22 -43 36 -14 14 -29 26 -35 26 -17 0 47 -61
85 -80 39 -20 65 -47 56 -57 -4 -3 -14 0 -23 8 -15 12 -17 12 -12 -1 2 -8 19
-20 37 -26 33 -11 106 -72 96 -82 -3 -3 -23 9 -45 27 -22 17 -40 28 -40 24 0
-15 31 -53 43 -53 6 0 23 -12 38 -26 l28 -27 -21 -36 -21 -36 -35 32 c-20 19
-32 38 -29 46 7 18 -19 57 -37 57 -8 0 -24 -8 -36 -18 -18 -15 -20 -21 -11
-45 6 -16 18 -27 29 -27 26 0 66 -33 92 -75 27 -43 18 -61 -18 -37 -41 27
-162 54 -162 37 0 -3 7 -17 17 -31 10 -16 19 -60 24 -116 5 -69 12 -97 28
-117 11 -14 32 -48 46 -76 14 -30 39 -59 60 -73 47 -30 47 -61 -2 -101 -21
-17 -41 -31 -44 -31 -4 0 -11 33 -16 73 l-8 72 -35 0 c-32 0 -35 -3 -38 -33
-3 -27 1 -35 16 -39 26 -6 44 -51 40 -97 l-3 -37 -23 23 c-37 38 -72 97 -72
123 0 14 -3 25 -7 25 -16 0 -73 -96 -73 -123 0 -14 -5 -46 -12 -71 -10 -38 -9
-48 9 -83 l21 -40 -29 0 c-17 0 -42 -10 -57 -22 -15 -12 -48 -31 -74 -43 -49
-23 -68 -50 -68 -100 0 -29 -45 -122 -78 -160 -14 -17 -32 -79 -35 -127 -2
-23 9 -34 46 -45 12 -4 17 -16 17 -41 0 -19 6 -44 12 -55 10 -16 10 -24 0 -38
-6 -9 -17 -28 -22 -41 -7 -16 -15 -21 -28 -16 -9 4 -33 9 -53 12 l-36 5 10 39
c5 22 18 44 28 50 22 12 25 52 5 69 -8 6 -25 10 -38 8 -20 -3 -23 -9 -23 -53
-1 -42 -25 -125 -38 -125 -2 0 -3 36 -2 80 0 44 -2 80 -6 80 -4 0 -20 -4 -34
-10 -31 -12 -185 -163 -185 -182 0 -7 -9 -29 -19 -49 -11 -20 -23 -53 -27 -73
-7 -39 -65 -106 -92 -106 -25 0 -5 52 33 86 39 35 45 68 15 84 -28 15 -60 -4
-60 -34 0 -34 -39 -116 -55 -116 -8 0 -25 5 -39 11 l-25 12 29 41 c15 22 39
50 51 60 l24 20 -35 15 c-19 8 -66 16 -105 19 l-70 4 -70 -51 c-88 -64 -115
-90 -115 -106 0 -8 -14 -37 -32 -65 -25 -41 -45 -58 -91 -82 -32 -16 -61 -27
-63 -25 -2 2 23 27 56 56 52 45 60 57 60 87 0 82 -51 138 -124 136 -23 -1 -96
-2 -163 -2 -152 0 -158 -4 -150 -99 6 -81 19 -111 59 -134 17 -10 28 -20 25
-23 -11 -11 -97 48 -97 66 0 10 -7 23 -14 30 -8 6 -20 27 -26 45 -17 50 -155
159 -216 171 -34 6 -152 -20 -169 -37 -7 -8 -3 -16 14 -27 22 -15 76 -91 69
-97 -10 -8 -48 -25 -57 -25 -6 0 -17 15 -25 34 -8 18 -19 37 -25 40 -6 4 -4
-9 4 -28 21 -50 17 -59 -4 -11 -14 31 -15 46 -7 67 14 36 -10 64 -47 54 -41
-10 -46 -59 -7 -71 35 -11 78 -105 48 -105 -25 0 -98 83 -98 112 0 36 -78 186
-104 200 -12 6 -42 33 -67 59 -36 39 -52 49 -78 49 -22 0 -30 -4 -25 -12 4 -7
8 -43 8 -80 1 -67 1 -68 -16 -47 -17 19 -18 20 -18 3 -1 -16 -2 -16 -9 -4 -5
8 -11 29 -15 45 -5 23 -4 26 4 15 9 -13 11 -12 9 5 -1 11 1 33 6 48 10 37 -13
62 -48 53 -38 -9 -44 -42 -14 -74 14 -15 29 -44 32 -64 7 -36 6 -38 -18 -38
-13 0 -37 -2 -53 -5 -26 -5 -31 -1 -51 39 -19 38 -20 46 -8 56 8 7 15 29 15
50 0 33 4 39 30 49 22 7 30 16 30 33 -1 43 -21 113 -39 133 -32 35 -71 116
-77 160 -5 43 -24 85 -38 85 -7 0 -43 21 -81 46 -40 26 -77 43 -87 40 -22 -5
-22 -7 -3 38 22 53 7 162 -32 224 -33 54 -53 64 -53 28 0 -25 -37 -98 -53
-105 -4 -1 -17 -13 -29 -25 l-20 -21 4 59 c3 33 10 62 17 64 24 8 42 36 39 61
-3 22 -8 26 -38 26 -23 0 -35 -5 -37 -15 -1 -8 -4 -35 -8 -60 -9 -72 -17 -77
-60 -37 -32 29 -37 39 -31 62 4 14 20 34 36 43 26 15 49 48 108 159 8 13 17
62 21 108 5 52 15 94 26 111 21 32 6 46 -34 34 -14 -5 -42 -11 -62 -14 -21 -4
-42 -13 -49 -21 -12 -14 -40 -21 -40 -10 0 4 6 18 14 33 20 38 58 72 92 81 24
6 30 14 32 41 4 34 -9 50 -40 50 -24 0 -47 -26 -42 -47 3 -11 -8 -30 -29 -51
l-34 -33 -20 33 -20 34 21 27 c12 15 29 27 38 27 9 0 18 7 22 15 3 9 25 25 48
36 103 48 140 85 162 159 11 35 29 68 53 92 20 21 35 38 33 39 -3 1 -40 3 -83
6 -58 3 -85 0 -109 -11 -39 -20 -38 -21 -38 9 0 29 41 72 76 81 12 3 32 1 43
-6 30 -15 60 -4 67 26 13 49 -45 74 -81 34 -10 -11 -38 -31 -62 -45 l-44 -24
-9 25 c-6 14 -10 32 -10 39 0 22 41 45 81 45 39 0 122 31 134 49 3 6 21 18 40
25 18 8 46 34 64 59 21 31 49 54 86 73 30 16 55 31 55 35 0 14 -81 39 -125 39
-44 0 -55 10 -37 36 13 20 81 24 118 7 31 -15 35 -15 54 2 25 23 26 61 1 75
-29 15 -37 13 -69 -20 -17 -16 -37 -30 -45 -30 -19 0 -29 24 -15 38 15 15 -28
35 -60 27 -21 -5 -24 -4 -14 8 8 9 43 17 94 22 81 7 173 40 199 71 6 8 22 14
35 14 13 0 51 14 85 32 l60 32 -23 18 c-34 26 -83 48 -107 48 -25 0 -25 -2 -6
44 17 40 29 109 26 144 -1 11 -4 10 -16 -1 -13 -13 -156 -67 -178 -67 -4 0 -7
12 -7 27 0 31 -46 103 -66 103 -8 0 -11 -6 -7 -16z m63 -102 c0 -15 -12 -40
-26 -57 -17 -21 -22 -23 -15 -8 20 40 12 61 -9 23 -23 -42 -26 -36 -5 13 8 20
15 49 14 64 l-1 28 -7 -30 c-4 -17 -13 -40 -19 -50 -10 -18 -11 -18 -12 -2 0
10 -4 16 -9 12 -5 -3 -7 -29 -4 -58 4 -38 1 -62 -11 -85 -9 -17 -17 -41 -17
-54 -2 -33 -18 49 -18 95 -1 39 24 95 69 155 l25 33 22 -26 c13 -14 23 -38 23
-53z m2729 -44 c20 -42 22 -56 15 -115 l-7 -68 -15 35 c-9 19 -17 66 -19 104
-2 65 -13 107 -13 55 -1 -23 -1 -23 -12 -4 -7 11 -15 36 -19 55 l-7 35 0 -35
c-1 -19 5 -46 13 -60 8 -14 14 -30 15 -37 0 -19 -32 -8 -52 18 -23 27 -19 80
7 110 16 17 18 16 44 -14 15 -18 38 -53 50 -79z m-2541 27 c-7 -58 -60 -140
-107 -165 -20 -10 -54 -37 -76 -60 -22 -23 -62 -53 -90 -67 l-50 -25 35 37
c19 20 44 41 55 45 19 8 19 9 1 9 -18 1 -18 2 -1 21 10 11 29 20 43 20 27 0
109 47 117 68 2 7 -20 -3 -50 -23 -30 -19 -55 -33 -55 -30 0 18 80 111 121
141 28 20 48 39 45 42 -6 5 -93 -62 -113 -88 -19 -24 -17 10 3 38 8 12 11 22
6 22 -11 0 -39 -55 -46 -92 -6 -28 -30 -58 -47 -58 -18 0 -9 39 17 69 14 17
21 31 15 31 -17 0 -51 -61 -51 -91 0 -14 -10 -34 -22 -45 l-21 -19 6 33 c4 21
3 31 -3 27 -6 -3 -10 -24 -10 -46 0 -44 -12 -74 -33 -82 -12 -4 -12 1 -1 31 7
21 13 44 14 53 0 20 51 96 99 149 29 32 56 49 117 70 43 16 81 29 83 29 2 1 1
-19 -1 -44z m2397 -33 c63 -54 119 -135 136 -199 10 -37 17 -68 15 -70 -2 -2
-13 11 -24 29 -13 22 -18 44 -15 64 3 18 0 35 -6 39 -8 5 -10 -1 -5 -19 4 -19
2 -26 -9 -26 -16 0 -27 20 -27 52 0 23 -37 88 -51 88 -4 0 3 -16 16 -36 32
-46 34 -80 5 -64 -24 13 -40 41 -40 71 0 23 -39 93 -47 85 -3 -3 2 -15 11 -28
28 -40 17 -51 -18 -17 -19 18 -50 41 -68 53 l-33 20 19 -22 c10 -12 27 -24 36
-27 18 -6 136 -145 123 -145 -9 0 -87 53 -91 63 -2 4 -9 7 -15 7 -7 -1 6 -17
28 -37 34 -30 36 -34 15 -28 -31 9 -38 16 -84 84 -26 38 -36 64 -36 91 l0 39
73 -25 c39 -14 81 -32 92 -42z m-2339 -118 c19 -9 34 -20 34 -25 0 -10 -73
-49 -92 -49 -7 0 -42 -16 -78 -35 -97 -51 -111 -56 -149 -53 l-35 3 40 26 c22
14 66 33 99 42 33 9 54 16 48 16 -23 2 -14 18 17 31 22 9 37 9 62 1 24 -8 34
-8 42 0 8 9 6 10 -6 6 -20 -7 -25 8 -5 17 6 3 -6 3 -28 -1 -36 -6 -39 -5 -26
10 8 10 9 17 3 17 -6 0 -14 -5 -17 -10 -7 -11 -112 -80 -121 -80 -15 0 23 33
58 51 22 11 41 26 45 34 7 20 66 19 109 -1z m2232 -14 c10 -11 32 -28 51 -38
19 -9 37 -23 39 -30 5 -15 -89 40 -108 63 -7 8 -17 15 -22 15 -6 0 -5 -7 3
-16 11 -14 9 -15 -27 -9 -29 5 -35 4 -24 -4 13 -9 12 -11 -4 -11 -13 0 -17 -3
-10 -10 6 -6 21 -6 42 2 26 10 37 9 69 -7 32 -15 35 -19 18 -23 -13 -3 -2 -9
35 -19 46 -11 150 -66 150 -79 0 -2 -21 -1 -47 3 -51 6 -151 51 -172 77 -8 9
-26 16 -42 16 -28 0 -99 37 -99 52 0 15 56 37 93 38 27 0 44 -6 55 -20z m165
-42 c9 -5 17 -13 17 -18 0 -6 -8 -10 -17 -10 -11 -1 -6 -6 13 -14 17 -8 42
-29 55 -47 l24 -33 -40 24 c-47 28 -135 102 -135 112 0 9 57 -1 83 -14z
m-2858 -28 c0 -18 -6 -26 -23 -28 -27 -4 -40 22 -22 44 19 22 45 13 45 -16z
m3085 -6 c11 -12 10 -18 -3 -31 -15 -15 -16 -15 -10 5 4 16 1 22 -12 22 -13 0
-16 -6 -12 -22 6 -22 5 -22 -8 -5 -27 37 16 67 45 31z m-3190 -104 c26 -73 25
-80 -12 -131 -38 -53 -52 -35 -14 20 14 20 26 46 25 57 0 13 -5 9 -17 -16
l-16 -35 -4 29 c-2 16 1 33 7 39 18 18 11 87 -9 87 -5 0 -3 -13 3 -30 9 -23 8
-33 -1 -42 -9 -9 -15 -9 -24 0 -7 7 -16 12 -20 12 -4 0 1 -9 12 -20 20 -20 25
-47 14 -86 -4 -16 -11 -20 -27 -16 -21 5 -21 4 2 -15 25 -21 31 -62 17 -113
l-8 -25 21 25 c11 14 21 34 21 46 0 26 51 107 81 128 13 9 32 16 42 16 10 0
35 9 57 20 22 11 46 20 55 20 14 0 14 -3 0 -29 -8 -16 -24 -54 -35 -85 -14
-35 -35 -67 -59 -88 -20 -18 -47 -48 -60 -66 -21 -30 -86 -72 -111 -72 -8 0
-9 10 -5 29 4 21 -1 44 -21 83 -23 45 -27 67 -28 139 -1 64 3 92 14 105 24 30
40 62 40 80 0 35 41 -11 60 -66z m3336 -16 l37 -75 -13 -72 c-6 -40 -17 -84
-22 -100 -10 -25 -12 -26 -24 -10 -17 23 -18 74 0 98 11 16 11 21 0 33 -19 19
-18 71 3 94 17 20 5 26 -15 6 -15 -15 -26 12 -20 47 3 14 1 22 -5 18 -9 -6 -4
-74 9 -122 5 -17 4 -22 -4 -17 -7 4 -16 21 -21 39 -6 21 -10 25 -10 12 -1 -11
8 -37 19 -58 25 -45 26 -65 4 -46 -22 18 -44 64 -44 91 0 50 43 138 66 138 1
0 19 -34 40 -76z m-3243 -6 c-9 -20 -10 -16 -10 22 0 38 1 42 10 23 7 -16 7
-30 0 -45z m68 29 c-10 -9 -11 -8 -5 6 3 10 9 15 12 12 3 -3 0 -11 -7 -18z
m204 -77 c0 -26 -20 -36 -44 -21 -10 7 -11 13 -1 30 15 29 45 23 45 -9z m2718
13 c18 -10 50 -22 72 -28 30 -8 48 -22 77 -60 21 -27 38 -59 38 -70 0 -11 7
-30 15 -42 8 -12 19 -48 23 -80 l8 -59 -53 29 c-33 18 -63 44 -78 67 -13 21
-37 47 -52 58 -31 22 -40 37 -76 129 -30 78 -27 84 26 56z m-154 -12 c8 -14 7
-22 -5 -32 -14 -11 -15 -10 -12 7 2 13 -2 19 -14 18 -10 -1 -18 4 -18 12 0 21
38 17 49 -5z m-2646 -102 c20 -5 37 -14 37 -20 0 -5 -20 -18 -45 -29 -27 -12
-49 -29 -54 -43 -22 -57 -172 -147 -245 -147 -22 0 -35 4 -31 10 3 6 16 10 29
10 26 0 130 63 120 73 -4 4 -22 -7 -41 -23 -18 -17 -39 -30 -46 -30 -7 0 -3 7
8 15 11 8 35 29 53 47 18 18 30 26 27 17 -4 -10 0 -19 9 -22 9 -4 15 -1 13 6
-1 6 18 22 43 34 24 13 38 23 30 23 -9 1 -1 13 20 30 38 33 27 42 -13 10 -22
-17 -26 -18 -31 -4 -3 9 -2 12 5 9 6 -4 13 2 16 13 5 19 18 28 48 31 6 0 27
-4 48 -10z m2781 -24 c-1 -5 2 -21 7 -35 9 -25 9 -25 -8 -5 -21 24 -53 39 -53
25 0 -6 6 -10 14 -10 7 0 21 -11 30 -25 15 -23 15 -24 -1 -18 -10 4 -14 2 -10
-4 4 -6 19 -13 35 -16 15 -3 39 -15 53 -27 l24 -21 -28 6 c-19 4 -26 2 -22 -5
3 -5 14 -10 24 -10 10 0 34 -11 54 -25 20 -13 56 -31 79 -39 l43 -15 -47 -1
c-26 0 -50 5 -53 10 -3 6 -14 10 -24 10 -10 0 -24 7 -31 16 -8 8 -28 21 -46
29 -17 7 -46 34 -63 59 -19 27 -50 55 -73 67 -40 20 -41 22 -22 36 22 16 120
14 118 -2z m-2924 -60 c-13 -14 -26 -23 -28 -20 -3 3 5 16 18 30 13 14 26 23
28 20 3 -3 -5 -16 -18 -30z m2994 -34 c-7 -7 -44 31 -44 46 0 8 10 2 24 -14
13 -15 22 -30 20 -32z m61 -51 l40 -45 -42 40 c-24 21 -43 43 -43 49 0 5 1 7
3 5 1 -2 20 -24 42 -49z m-3425 -11 c0 -5 -4 -8 -9 -4 -6 3 -14 -3 -20 -12 -9
-16 -10 -16 -11 5 0 15 6 22 20 22 11 0 20 -5 20 -11z m3740 -19 c0 -5 -8 -6
-17 -3 -13 5 -15 2 -10 -11 4 -10 3 -15 -3 -11 -18 11 -11 35 10 35 11 0 20
-4 20 -10z m-3616 -127 c13 -73 10 -226 -4 -254 -6 -11 -18 -28 -26 -37 -57
-67 -77 -96 -86 -129 l-12 -38 -7 35 c-4 19 -13 55 -19 80 -13 49 -13 57 -6
140 6 82 22 133 56 175 17 21 30 46 30 56 0 23 41 52 54 39 5 -5 14 -35 20
-67z m-185 15 c26 -33 31 -82 16 -176 -11 -71 -22 -48 -23 48 -1 71 -16 140
-28 128 -2 -3 0 -17 6 -32 5 -15 10 -34 10 -43 0 -13 -2 -14 -17 -2 -16 13
-16 13 0 -11 9 -13 17 -37 17 -51 0 -23 -4 -26 -22 -22 -20 4 -21 3 -6 -7 28
-17 41 -49 48 -117 l6 -63 -23 27 c-52 62 -56 76 -54 206 2 154 4 165 26 155
11 -6 31 -23 44 -40z m3722 -14 c9 -23 22 -45 28 -49 28 -17 57 -127 62 -235
2 -28 -13 -95 -27 -127 -8 -17 -14 -37 -15 -45 0 -7 -7 8 -15 34 -8 26 -24 54
-35 62 -12 8 -27 23 -33 34 -6 11 -19 31 -29 45 -30 42 -26 295 6 335 14 18
35 -2 58 -54z m163 21 c-3 -13 2 -49 11 -79 11 -33 15 -66 11 -83 -4 -15 -7
-43 -6 -60 1 -35 -16 -72 -53 -116 l-24 -28 5 58 c2 32 13 73 23 92 17 29 18
33 3 27 -14 -5 -16 -1 -10 26 3 17 13 39 21 48 20 22 19 36 -1 19 -15 -13 -16
-11 -12 16 3 17 9 39 13 49 6 13 5 17 -3 12 -6 -4 -17 -35 -23 -69 -11 -51
-14 -58 -20 -37 -4 14 -7 21 -8 17 -1 -5 -5 -6 -10 -2 -15 9 8 67 42 103 37
38 50 41 41 7z m-3514 0 c16 -20 6 -45 -19 -45 -23 0 -32 18 -19 43 11 21 22
22 38 2z m3127 -21 c3 -8 0 -21 -7 -27 -10 -9 -11 -9 -6 0 9 17 -15 28 -25 12
-7 -11 -9 -11 -9 2 0 31 36 41 47 13z m-3118 -124 c22 0 23 -1 9 -17 -23 -26
-48 -79 -48 -101 0 -25 -71 -112 -91 -112 -9 0 -22 -6 -28 -14 -7 -8 -25 -18
-41 -21 -16 -3 -35 -17 -44 -29 -14 -22 -56 -42 -56 -27 0 17 68 71 98 77 17
4 37 13 43 20 14 17 5 18 -22 4 -10 -6 -19 -7 -19 -3 0 10 42 53 53 53 16 0
67 41 79 63 8 15 -2 10 -30 -15 -23 -21 -44 -38 -47 -38 -15 0 1 24 48 76 28
31 42 52 30 46 -12 -7 -36 -29 -53 -49 l-32 -38 5 38 c4 22 2 35 -4 32 -5 -4
-9 -23 -9 -43 0 -54 -61 -146 -115 -174 -13 -7 -8 2 13 24 17 19 32 38 32 43
0 6 11 20 24 32 23 22 36 62 36 108 0 40 72 80 125 69 11 -2 31 -4 44 -4z
m3451 -80 c-6 -11 -12 -20 -13 -20 -1 0 -3 21 -3 47 -2 46 -2 47 12 20 11 -20
12 -32 4 -47z m-3911 -209 c19 -12 4 -51 -20 -51 -22 0 -34 22 -25 45 6 17 24
19 45 6z m4039 -35 c-4 -25 -40 -33 -57 -12 -10 11 -8 17 10 29 27 20 51 11
47 -17z m-3721 -32 c8 -21 -19 -46 -40 -38 -17 6 -23 35 -10 47 12 13 44 7 50
-9z m3408 -15 c5 -14 2 -25 -6 -30 -21 -13 -35 -11 -21 3 16 16 15 28 -3 28
-8 0 -15 -5 -15 -12 0 -6 -3 -8 -6 -5 -9 9 15 37 32 37 7 0 16 -10 19 -21z
m-3562 -106 c4 -22 16 -61 28 -87 18 -41 20 -60 15 -145 -3 -54 -13 -115 -21
-134 -8 -20 -15 -49 -16 -64 0 -25 -1 -26 -9 -8 -4 11 -6 31 -4 45 3 19 3 21
-4 7 -7 -17 -13 -13 -46 27 -55 67 -61 99 -57 291 2 55 9 94 23 128 l22 50 31
-35 c20 -21 34 -50 38 -75z m3761 32 c8 -27 16 -84 17 -125 3 -195 4 -191 -76
-306 l-39 -58 -8 38 c-4 20 -13 46 -19 58 -6 11 -13 65 -15 119 -4 82 -1 108
15 147 11 26 22 64 26 85 6 39 63 114 75 100 4 -4 15 -30 24 -58z m-3684 22
c0 -2 -10 -12 -22 -23 l-23 -19 19 23 c18 21 26 27 26 19z m-298 -35 c9 -4 32
-25 52 -48 30 -36 33 -44 26 -75 l-8 -34 -2 40 c-3 38 -3 37 -10 -15 -5 -40
-3 -63 7 -84 l15 -29 -31 5 c-40 6 -39 2 7 -19 25 -13 38 -26 40 -42 2 -14 15
-40 29 -58 33 -43 18 -42 -39 2 -47 35 -88 103 -88 144 0 13 -9 38 -20 57 -16
26 -20 46 -18 98 3 65 7 71 40 58z m4145 -64 c2 -46 -2 -72 -17 -100 -11 -21
-23 -56 -26 -77 -9 -54 -35 -95 -85 -131 -54 -38 -66 -38 -38 1 12 17 25 45
28 63 5 23 13 32 31 34 14 2 30 8 35 14 7 6 0 7 -19 2 -26 -6 -28 -5 -21 17 9
29 28 55 69 92 17 15 25 27 19 27 -7 0 -15 -4 -18 -10 -10 -16 -25 -12 -25 6
0 9 9 33 21 53 l21 36 -21 -24 c-12 -13 -23 -34 -26 -47 -3 -13 -7 -35 -10
-49 -8 -36 -20 -31 -35 15 -13 41 -13 41 26 81 33 35 64 56 84 58 3 1 6 -27 7
-61z m-3732 15 c-11 -31 -25 -114 -25 -155 0 -43 -10 -68 -46 -111 -13 -16
-24 -37 -24 -47 0 -18 -43 -60 -61 -60 -18 0 34 106 64 133 29 25 29 26 5 11
-25 -15 -28 -15 -28 -1 0 9 7 22 16 29 43 35 64 63 64 87 0 22 -3 20 -20 -18
-11 -24 -23 -41 -26 -38 -9 8 14 98 29 117 11 13 10 13 -7 0 -10 -8 -22 -23
-27 -35 -7 -14 -8 -7 -4 25 5 45 5 45 -10 17 -13 -22 -14 -34 -5 -65 10 -31 8
-44 -7 -78 l-18 -40 -1 75 c-1 42 -3 85 -5 96 -4 20 27 40 96 63 44 14 48 14
40 -5z m3390 -33 c21 -11 29 -23 26 -36 -2 -10 -4 -53 -5 -95 l0 -76 -19 39
c-17 33 -18 45 -9 75 8 27 8 43 -2 67 l-14 31 5 -45 5 -45 -22 33 c-30 44 -33
40 -10 -10 21 -47 27 -93 10 -83 -6 4 -17 21 -24 38 -8 18 -15 26 -15 19 -2
-22 19 -56 52 -84 35 -29 30 -50 -6 -30 -12 7 -7 1 11 -15 18 -15 32 -32 32
-36 0 -4 9 -29 21 -54 11 -25 18 -48 15 -51 -10 -9 -54 38 -72 77 -9 20 -27
50 -39 66 -17 23 -24 49 -28 111 -3 44 -11 92 -16 107 l-11 27 43 -6 c23 -4
56 -14 72 -24z m-3706 -145 c1 -17 -1 -17 -9 -5 -5 8 -9 26 -9 40 0 23 1 23 9
5 5 -11 9 -29 9 -40z m3922 -18 c-13 -13 -15 21 -3 50 6 15 8 13 10 -11 2 -16
-1 -33 -7 -39z m-3621 -197 c0 -5 -7 -10 -15 -10 -8 0 -15 -4 -15 -10 0 -5 7
-10 16 -10 8 0 12 -5 9 -10 -8 -14 -45 6 -45 25 0 13 14 23 38 24 6 1 12 -3
12 -9z m3357 -16 c8 -22 -18 -46 -37 -34 -13 8 -12 10 3 10 9 0 17 5 17 10 0
6 -7 10 -16 10 -8 0 -12 5 -9 10 10 15 35 12 42 -6z m-3699 -43 c20 -12 11
-56 -12 -56 -27 0 -43 29 -27 49 15 18 21 19 39 7z m4032 -16 c12 -15 5 -55
-10 -55 -36 0 -53 33 -28 58 16 16 23 15 38 -3z m-3869 -14 c14 -3 43 -22 65
-41 45 -39 124 -176 124 -213 0 -13 6 -37 14 -53 8 -16 17 -51 20 -79 l6 -50
-25 48 c-14 26 -28 47 -30 47 -3 0 1 -13 10 -30 22 -42 20 -43 -27 -14 -86 53
-166 137 -174 182 -3 20 -15 51 -25 68 -13 22 -19 50 -19 94 0 55 2 61 18 55
9 -4 29 -10 43 -14z m293 -13 c8 -18 16 -61 20 -95 6 -58 5 -66 -30 -133 -41
-78 -51 -89 -60 -66 -11 29 4 61 36 73 16 6 30 16 30 22 0 7 -10 5 -25 -5 -25
-16 -25 -16 -25 15 0 24 6 34 24 43 14 6 27 17 31 26 4 12 1 12 -20 -2 -29
-19 -34 -4 -10 28 8 11 14 38 13 60 -1 41 -1 41 -5 6 -5 -37 -23 -67 -23 -38
0 9 -4 19 -8 22 -4 2 -6 -11 -4 -30 2 -19 1 -46 -3 -61 l-7 -28 -18 40 c-11
22 -19 32 -19 22 -1 -10 8 -36 20 -59 14 -27 18 -46 12 -57 -6 -13 -15 -3 -40
47 l-33 64 35 31 c19 17 35 35 35 39 0 13 42 68 52 68 5 0 15 -15 22 -32z
m3156 -48 c0 -5 14 -19 30 -32 17 -12 30 -27 30 -34 0 -6 -12 -38 -27 -70 -21
-47 -28 -54 -33 -39 -4 12 1 37 11 60 10 22 18 47 18 55 0 8 -9 -3 -18 -25
l-19 -40 -7 38 c-4 20 -5 48 -3 62 3 13 1 22 -3 19 -5 -3 -9 -13 -9 -22 0 -29
-18 1 -23 38 l-4 35 -1 -40 c-1 -23 5 -50 14 -63 20 -30 14 -50 -9 -28 -9 10
-17 13 -17 7 0 -6 11 -18 25 -27 17 -11 25 -25 25 -46 0 -26 -2 -28 -20 -18
-11 6 -20 7 -20 1 0 -5 13 -14 29 -19 32 -11 45 -43 26 -68 -10 -15 -17 -8
-54 60 l-43 77 10 75 c6 41 18 86 27 100 l16 25 25 -36 c13 -20 24 -40 24 -45z
m280 7 c-3 -45 -12 -83 -22 -100 -10 -14 -18 -33 -18 -42 0 -33 -40 -91 -92
-135 -62 -54 -128 -96 -128 -82 0 10 35 64 78 119 13 18 21 33 17 33 -4 0 11
20 33 44 22 24 45 54 51 67 9 18 7 17 -11 -6 l-23 -30 -6 40 c-6 40 -6 39 -8
-11 -1 -37 -6 -54 -17 -58 -8 -3 -24 -26 -35 -51 -11 -25 -23 -45 -27 -45 -10
0 -62 -95 -62 -113 0 -9 -5 -19 -11 -22 -14 -9 -2 76 17 122 8 18 14 44 14 58
0 38 85 187 122 215 18 14 56 35 83 46 28 12 50 22 50 23 0 0 -2 -32 -5 -72z
m-3603 31 c-3 -8 -6 -5 -6 6 -1 11 2 17 5 13 3 -3 4 -12 1 -19z m3420 -10 c-3
-8 -6 -5 -6 6 -1 11 2 17 5 13 3 -3 4 -12 1 -19z m-3683 -108 c44 0 81 -30
111 -91 14 -27 23 -49 21 -49 -2 0 -20 23 -40 50 -20 28 -41 50 -47 50 -6 0 3
-17 20 -37 46 -56 28 -53 -33 5 -30 29 -63 52 -73 52 -11 0 -2 -11 26 -29 25
-17 48 -37 53 -45 7 -13 4 -14 -23 -4 -22 8 -34 7 -42 -1 -8 -8 -4 -11 16 -11
33 0 157 -55 157 -69 0 -5 -8 -15 -17 -20 -13 -8 -14 -10 -4 -11 8 0 22 7 32
16 21 19 49 12 49 -11 0 -11 -12 -15 -50 -15 -51 0 -110 22 -110 40 0 6 -6 10
-14 10 -27 0 -75 50 -101 105 -14 30 -30 57 -37 61 -19 12 24 23 50 13 13 -5
38 -9 56 -9z m4012 -77 c-30 -58 -50 -82 -74 -95 -18 -9 -41 -23 -50 -31 -39
-33 -152 -43 -152 -12 0 21 30 26 53 10 12 -8 28 -15 37 -14 10 0 7 4 -7 11
-13 6 -23 15 -23 19 0 12 72 47 133 64 l52 15 -45 -4 -45 -5 36 32 c19 18 44
37 55 44 17 10 17 11 -6 5 -14 -3 -46 -27 -72 -54 -26 -26 -49 -48 -53 -48
-12 0 26 60 46 71 11 6 18 13 15 17 -8 7 -76 -58 -76 -74 0 -6 -7 -17 -15 -24
-10 -8 -6 8 11 46 32 75 55 92 124 97 30 2 65 4 76 5 21 2 19 -3 -20 -75z
m-3478 -96 c4 -29 12 -33 28 -17 7 7 17 3 32 -10 13 -13 22 -16 22 -8 0 21 28
-14 35 -44 10 -38 -6 -35 -44 7 -33 38 -41 42 -41 22 0 -7 -9 -30 -19 -50 -11
-21 -22 -56 -26 -78 -7 -38 -8 -39 -46 -39 -21 0 -39 2 -39 5 0 3 16 43 35 90
20 47 36 101 37 120 1 41 21 42 26 2z m2977 3 c4 0 1 8 -6 18 -13 15 -12 16 4
3 9 -7 17 -19 17 -25 0 -6 9 -17 20 -24 22 -14 25 -44 10 -89 -9 -25 -15 -29
-36 -25 -36 7 -82 102 -50 102 21 0 20 9 -1 34 -18 21 -18 21 3 4 32 -27 40
-21 13 9 -17 20 -18 23 -3 10 11 -9 24 -17 29 -17z m-3041 -85 c-16 -39 -61
-65 -75 -44 -20 33 -19 79 2 112 l22 33 33 -33 c33 -32 33 -33 18 -68z m2966
72 c0 -18 16 -70 35 -116 19 -45 35 -87 35 -92 0 -5 -18 -9 -39 -9 l-39 0 -7
50 c-4 27 -11 52 -16 55 -4 3 -12 20 -18 38 -5 18 -12 40 -16 50 -8 19 14 21
27 2 4 -5 8 2 8 16 0 14 3 29 7 32 14 15 23 5 23 -26z m-87 -59 c-19 -31 -50
-54 -61 -44 -3 4 2 23 12 43 12 25 20 33 25 24 6 -10 10 -9 15 4 3 9 10 13 16
10 7 -4 4 -17 -7 -37z m-2720 -51 c20 -15 37 -33 37 -38 0 -6 9 -24 21 -40
l20 -29 -36 0 c-36 0 -36 0 -29 35 4 23 2 35 -5 35 -6 0 -11 -7 -11 -17 0 -22
-12 -8 -27 30 -7 19 -12 24 -12 14 -1 -10 6 -34 14 -54 18 -42 18 -43 5 -43
-5 0 -17 12 -25 28 -13 22 -15 23 -12 5 5 -23 -12 -36 -32 -24 -9 6 -8 17 3
47 30 83 37 98 44 89 4 -6 24 -23 45 -38z m-367 18 c12 -8 24 -12 26 -9 3 2
11 -2 18 -11 7 -8 18 -15 26 -15 7 0 18 -9 24 -20 14 -26 -11 -38 -43 -22 -12
6 -37 15 -56 21 -19 6 -43 19 -53 28 -17 15 -17 17 0 29 22 17 33 17 58 -1z
m3127 -24 c10 -22 19 -53 22 -70 3 -27 1 -31 -20 -31 -19 0 -23 4 -19 18 5 15
3 14 -10 -2 -22 -27 -27 -17 -15 28 6 20 8 43 5 49 -2 7 -5 4 -5 -6 -1 -10 -6
-28 -13 -40 l-12 -22 -7 25 c-6 20 -8 17 -6 -15 2 -38 1 -40 -30 -43 -18 -2
-33 -1 -33 2 0 20 48 90 74 108 17 12 33 26 34 30 7 16 17 7 35 -31z m364 -5
c-4 -11 -89 -49 -139 -61 -23 -6 -28 -4 -28 12 0 11 11 26 25 33 13 7 22 17
19 21 -3 5 2 6 11 2 10 -3 20 -2 24 3 17 24 46 31 69 16 12 -8 21 -20 19 -26z
m-3551 -21 c20 -14 43 -25 51 -25 7 0 39 -9 71 -20 89 -32 129 -39 262 -45
122 -5 161 -16 130 -35 -12 -8 -11 -10 7 -10 23 0 41 -38 28 -59 -3 -6 -2 -11
4 -11 16 0 1 -28 -17 -33 -12 -3 -9 -5 6 -6 13 0 20 -5 17 -11 -9 -14 -177
-12 -260 4 -124 24 -320 94 -270 97 11 0 15 3 8 5 -18 8 -4 34 14 27 11 -4 14
-2 9 5 -4 7 -18 12 -31 12 -28 0 -45 19 -18 21 17 1 17 2 1 6 -10 2 -18 8 -18
13 0 5 7 7 15 4 8 -4 15 -1 15 6 0 7 8 9 23 4 12 -3 18 -3 14 2 -5 5 -29 16
-55 24 -29 9 -48 22 -50 33 -5 22 0 22 44 -8z m3582 -2 c-2 -11 -21 -24 -50
-33 -26 -8 -50 -19 -55 -24 -5 -5 0 -6 10 -3 11 4 29 9 40 11 12 2 16 1 10 -1
-7 -3 -13 -9 -13 -14 0 -5 6 -9 13 -10 6 0 3 -4 -8 -9 -18 -8 -18 -9 -2 -9 28
-1 11 -18 -25 -25 -32 -7 -32 -8 -10 -17 13 -5 20 -13 17 -19 -3 -5 0 -10 7
-10 27 0 -68 -42 -146 -65 -142 -41 -365 -61 -381 -35 -3 6 4 10 17 11 21 1
21 1 3 7 -18 6 -24 31 -15 60 1 4 2 15 1 25 -2 11 5 17 21 18 20 0 21 1 5 8
-39 15 10 31 109 36 55 3 122 7 149 9 33 3 43 2 30 -4 -18 -8 -17 -9 8 -9 15
-1 26 4 25 11 -2 6 17 17 42 25 82 24 180 65 180 74 0 5 5 9 11 9 6 0 9 -8 7
-17z m-3348 -3 c0 -5 -5 -10 -11 -10 -5 0 -7 5 -4 10 3 6 8 10 11 10 2 0 4 -4
4 -10z m-223 -36 c-3 -3 -12 -4 -19 -1 -8 3 -5 6 6 6 11 1 17 -2 13 -5z m188
-4 c8 -13 -5 -13 -25 0 -13 8 -13 10 2 10 9 0 20 -4 23 -10z m3165 -4 c0 -3
-4 -8 -10 -11 -5 -3 -10 -1 -10 4 0 6 5 11 10 11 6 0 10 -2 10 -4z m-3281
-163 c77 -43 70 -51 -18 -23 -68 21 -107 25 -115 12 -3 -5 7 -9 22 -9 15 0 45
-3 67 -7 37 -7 39 -9 20 -22 -17 -13 -14 -14 28 -8 50 7 57 1 30 -28 -21 -23
-34 -23 -80 2 -21 11 -45 20 -53 20 -8 0 -28 11 -44 24 l-30 23 37 18 c21 10
40 21 43 26 9 15 25 10 93 -28z m3481 10 c14 -10 35 -23 49 -28 24 -11 24 -11
-17 -38 -23 -15 -50 -27 -60 -27 -9 0 -28 -7 -40 -16 -28 -19 -67 -12 -82 16
-12 23 3 26 58 11 20 -6 32 -6 32 0 0 5 -10 9 -22 9 -21 0 -21 0 -2 15 10 8
42 15 69 16 l50 2 -43 4 c-24 2 -65 -3 -93 -12 -50 -17 -79 -15 -79 5 0 5 5
10 11 10 5 0 7 -4 4 -10 -11 -17 9 -11 48 15 33 23 72 43 87 44 3 1 17 -7 30
-16z m-3317 -70 c21 -5 58 -10 85 -12 26 -2 10 -36 -45 -95 -55 -60 -75 -76
-72 -59 3 19 -2 33 -12 33 -5 0 -7 -5 -3 -11 5 -8 1 -8 -14 0 -12 6 -24 17
-28 24 -6 9 -4 9 7 2 8 -5 7 -3 -3 6 -9 9 -14 20 -10 24 4 5 1 5 -6 1 -7 -4
-10 -12 -7 -17 4 -5 -6 -4 -20 3 l-26 12 23 13 c23 14 23 14 1 10 -18 -4 -13
5 24 43 39 40 50 47 66 39 10 -6 28 -13 40 -16z m3162 -39 c35 -35 44 -49 35
-58 -9 -8 -11 -8 -8 3 2 7 -2 15 -9 18 -8 3 -11 -3 -8 -18 4 -17 2 -20 -7 -11
-17 17 -33 15 -19 -2 9 -11 9 -16 0 -22 -8 -4 -9 -3 -5 4 9 16 -7 15 -22 0 -9
-9 -9 -15 1 -27 9 -11 7 -11 -13 2 -25 16 -26 16 -27 -4 -3 -36 -11 -33 -60
21 -61 67 -79 98 -64 113 8 8 11 7 11 -3 0 -9 6 -8 22 6 12 10 18 13 14 7 -9
-15 10 -18 19 -3 4 6 10 8 15 5 5 -3 11 -2 14 3 2 4 18 9 35 10 24 2 39 -7 76
-44z m-2991 -8 c37 -42 78 -108 54 -88 -18 15 -121 20 -158 7 -25 -8 -25 -8 4
24 33 35 48 38 89 16 19 -10 27 -11 25 -3 -2 6 -20 17 -39 23 -19 7 -34 17
-33 23 2 27 5 32 15 32 6 0 25 -15 43 -34z m48 4 c3 -16 2 -30 -2 -30 -3 0
-16 14 -28 30 l-23 30 25 0 c19 0 25 -6 28 -30z m40 6 c3 -13 -1 -35 -8 -47
-13 -24 -13 -24 -14 8 0 17 -3 38 -6 47 -4 10 -1 16 9 16 8 0 17 -11 19 -24z
m2558 -32 c0 -40 -2 -45 -15 -34 -8 7 -15 28 -15 46 0 24 5 34 15 34 11 0 15
-12 15 -46z m38 14 c-19 -27 -23 -29 -26 -15 -6 29 6 47 28 47 21 0 21 0 -2
-32z m82 12 c6 -11 7 -20 3 -20 -4 0 8 -16 27 -35 40 -41 33 -55 -16 -32 -19
10 -40 15 -45 11 -6 -3 -20 -7 -32 -9 -12 -1 -30 -6 -41 -10 -17 -7 -17 -6 -6
16 14 28 80 99 92 99 4 0 12 -9 18 -20z m-2530 0 c0 -5 -7 -7 -15 -4 -9 4 -15
0 -15 -9 0 -8 6 -18 13 -20 7 -3 6 -6 -5 -6 -21 -1 -32 15 -24 34 6 17 46 21
46 5z m2280 -5 c12 -15 6 -35 -12 -35 -5 0 -8 6 -5 14 3 7 0 19 -6 25 -8 8 -8
11 0 11 6 0 16 -7 23 -15z m-2111 -82 c52 -52 84 -93 95 -123 10 -25 24 -56
33 -68 20 -32 12 -37 -20 -11 -20 15 -27 30 -28 57 0 20 -3 31 -6 24 -9 -23
-43 18 -44 52 0 23 -2 26 -7 13 -7 -16 -11 -14 -38 15 -17 18 -36 42 -42 53
-6 11 -12 15 -12 9 0 -6 11 -28 25 -48 27 -39 22 -45 -14 -19 -18 12 -23 13
-19 2 3 -8 23 -21 46 -29 34 -12 102 -77 102 -97 0 -3 -23 16 -52 41 -28 25
-64 48 -80 51 -15 4 -33 16 -39 26 -12 23 -2 129 13 129 5 0 44 -35 87 -77z
m2001 5 c0 -74 -5 -83 -47 -92 -17 -4 -52 -25 -77 -47 -25 -23 -46 -37 -46
-32 0 16 75 80 104 90 17 5 32 16 34 24 4 11 2 12 -9 2 -29 -28 -38 -12 -14
23 14 20 25 42 24 48 0 6 -6 2 -12 -8 -7 -11 -27 -36 -44 -55 -25 -28 -33 -32
-33 -18 0 11 -5 15 -11 11 -6 -3 -9 -17 -6 -30 5 -28 -4 -44 -28 -48 -12 -2
-19 -12 -19 -29 -2 -27 -56 -94 -56 -68 0 7 14 43 32 80 22 47 52 87 105 139
41 39 80 72 88 72 12 0 15 -14 15 -62z m55 -55 c-9 -15 -13 -19 -10 -8 4 11
10 29 13 40 3 11 7 14 9 8 3 -7 -3 -24 -12 -40z m-2163 -41 c62 -11 117 -39
145 -76 10 -12 35 -34 55 -49 20 -16 48 -43 61 -60 l24 -32 -66 2 c-126 3
-236 30 -256 63 -4 6 -24 18 -45 26 -25 10 -54 36 -84 75 -25 32 -46 60 -46
62 0 6 161 -2 212 -11z m2300 -29 c-15 -18 -37 -46 -50 -63 -13 -16 -36 -33
-50 -36 -15 -4 -42 -20 -60 -37 -35 -33 -69 -41 -236 -53 l-79 -6 43 51 c24
28 46 51 50 51 4 0 35 25 69 55 53 47 68 55 104 56 23 1 53 4 67 9 14 4 57 7
97 7 l71 -1 -26 -33z m-2515 -29 c-3 -3 -12 -4 -19 -1 -8 3 -5 6 6 6 11 1 17
-2 13 -5z m838 -27 c94 -64 115 -85 145 -141 17 -32 28 -61 26 -63 -3 -3 -29
20 -59 51 -56 58 -67 61 -135 40 -7 -2 -32 -1 -55 2 -36 5 -47 13 -77 55 -19
27 -38 49 -42 49 -20 0 -4 18 25 28 53 18 127 9 172 -21z m1050 14 c20 -9 25
-15 17 -20 -7 -4 -27 -30 -45 -57 -36 -54 -63 -63 -142 -46 l-40 8 32 17 c18
9 54 18 80 19 36 1 40 2 16 5 -44 6 -41 17 8 33 55 19 60 32 5 16 -24 -7 -60
-26 -80 -41 -29 -22 -36 -24 -36 -11 0 9 11 28 25 41 28 29 25 32 -10 9 -13
-8 -27 -29 -30 -45 -4 -18 -17 -35 -33 -43 -15 -8 -47 -36 -71 -63 -45 -49
-71 -47 -32 3 12 15 21 35 21 45 0 19 84 89 152 127 46 25 104 26 163 3z
m-1949 -2 c3 -6 -1 -18 -9 -27 -13 -12 -19 -13 -31 -3 -8 7 -12 19 -9 27 6 17
39 19 49 3z m2714 -25 c0 -17 -15 -25 -34 -18 -19 7 -21 25 -4 42 13 13 38 -2
38 -24z m-2090 -4 c0 -24 -26 -38 -42 -22 -16 16 -2 42 22 42 13 0 20 -7 20
-20z m1459 11 c12 -8 12 -12 2 -25 -8 -9 -18 -16 -23 -16 -7 0 -6 5 1 13 8 10
7 17 -1 25 -14 14 1 16 21 3z m-604 -35 c32 -21 59 -80 51 -111 -6 -25 -106
-114 -106 -95 0 7 10 26 22 43 30 42 33 130 4 135 -10 2 -23 -2 -30 -9 -8 -9
-8 -10 2 -5 18 11 15 -5 -5 -21 -16 -12 -15 -13 8 -7 46 10 41 -13 -7 -31 -43
-16 -46 -16 -82 1 -20 10 -58 19 -85 19 -46 0 -47 1 -42 25 4 20 2 26 -14 27
-17 1 -18 -3 -14 -40 5 -40 17 -66 59 -133 l18 -29 -22 19 c-12 11 -22 16 -22
12 0 -4 -13 1 -30 11 -16 9 -30 21 -30 26 0 4 -9 27 -20 49 -24 49 -26 95 -5
118 22 24 312 21 350 -4z m-1301 -6 c22 -11 49 -28 60 -38 12 -11 30 -24 41
-30 11 -6 14 -12 7 -12 -7 0 -22 5 -33 10 -12 7 -19 7 -19 1 0 -6 -19 -4 -47
5 -69 21 -106 27 -66 12 42 -17 52 -28 25 -28 -12 0 -22 -3 -22 -7 0 -5 63 -7
141 -6 77 1 150 -2 162 -6 l21 -8 -22 -12 c-27 -14 -210 -25 -226 -13 -6 5
-30 12 -54 15 -33 4 -54 16 -91 51 -50 46 -53 56 -17 56 15 0 96 24 101 30 1
0 18 -9 39 -20z m2429 -12 c26 -7 46 -15 45 -18 -2 -3 -24 -25 -51 -49 -37
-34 -56 -44 -87 -46 -22 -1 -46 -8 -55 -15 -9 -8 -28 -10 -52 -5 -21 3 -63 7
-93 9 -30 1 -63 6 -74 11 -17 7 -17 9 5 21 19 10 29 10 51 -2 15 -8 37 -14 50
-13 18 1 16 3 -9 10 -18 5 -33 11 -33 12 0 7 217 0 228 -7 7 -4 12 -2 12 3 0
6 -9 11 -20 11 -36 0 -21 19 28 34 26 8 39 15 30 15 -10 1 -48 -10 -84 -24
-37 -14 -69 -24 -71 -21 -2 2 10 15 27 30 17 14 27 26 22 26 -6 0 -24 -11 -40
-25 -17 -14 -35 -25 -42 -25 -17 0 48 52 89 72 37 18 43 17 124 -4z m-582 -31
c-10 -9 -11 -8 -5 6 3 10 9 15 12 12 3 -3 0 -11 -7 -18z m-1053 -43 c36 -25
25 -33 -18 -12 -22 11 -40 22 -40 24 0 10 38 2 58 -12z m761 -2 c-7 -3 -27
-11 -44 -19 l-30 -14 28 25 c17 16 33 23 44 19 14 -5 14 -8 2 -11z m-851 -6
c29 -8 77 -28 107 -45 30 -17 59 -31 65 -31 6 0 34 -14 63 -30 44 -26 47 -29
21 -24 -19 4 -42 0 -61 -9 -16 -9 -47 -18 -69 -22 -201 -29 -208 -29 -261 11
-17 13 -38 24 -47 24 -8 0 -28 11 -44 25 -17 14 -43 32 -59 40 -24 13 -25 15
-7 15 12 0 35 7 50 15 16 8 38 15 49 15 11 1 34 7 50 15 39 18 78 18 143 1z
m420 -6 c57 -22 107 -26 117 -10 9 15 25 12 25 -4 0 -8 -9 -30 -20 -49 -19
-31 -26 -35 -80 -41 -33 -4 -65 -4 -70 -1 -5 3 -24 27 -41 52 -31 44 -31 47
-14 60 24 16 20 17 83 -7z m639 1 c10 -5 43 -17 75 -27 l56 -17 -28 -29 c-16
-15 -48 -37 -72 -49 -24 -11 -59 -29 -78 -40 -45 -26 -123 -19 -300 24 -25 6
-56 10 -70 9 -25 -2 -25 -2 5 18 17 11 46 25 64 31 19 7 56 24 81 39 93 55
207 73 267 41z m-1447 -137 c0 -3 -4 -3 -9 1 -5 3 -13 0 -17 -6 -3 -6 0 -15 7
-20 11 -7 11 -9 -2 -9 -9 0 -22 7 -29 15 -19 22 5 48 31 34 10 -5 19 -12 19
-15z m889 17 c21 -14 34 -122 16 -140 -12 -12 -17 -9 -35 20 -16 24 -21 28
-17 12 3 -16 -2 -27 -19 -38 -39 -25 -49 -19 -63 44 -16 73 -4 98 49 104 19 2
40 4 45 5 6 1 16 -2 24 -7z m845 -18 c5 -11 1 -22 -10 -30 -23 -17 -29 -16
-44 2 -10 12 -10 18 0 30 17 20 46 19 54 -2z m-994 -34 c0 -13 -32 4 -51 27
-13 16 -12 16 19 0 17 -9 32 -21 32 -27z m254 27 c-6 -14 -52 -31 -61 -22 -4
4 30 22 64 35 1 1 0 -5 -3 -13z m-354 0 c0 -2 -37 -23 -82 -46 -46 -24 -102
-56 -124 -72 -34 -24 -58 -32 -125 -39 -46 -6 -100 -10 -119 -10 -41 0 -110
29 -110 46 0 20 85 92 117 99 22 5 42 1 72 -15 30 -15 51 -20 73 -15 42 8 29
-4 -15 -13 -23 -6 -42 -4 -58 5 -13 7 -31 13 -39 13 -8 0 -2 -6 15 -13 39 -16
19 -29 -47 -27 -48 1 -96 -14 -84 -26 3 -3 12 0 20 6 9 7 24 10 36 6 17 -5 19
-10 9 -21 -16 -20 -3 -17 29 5 15 11 42 22 60 26 30 6 32 5 33 -22 1 -27 1
-27 8 -3 5 18 21 30 64 46 31 12 57 18 57 14 0 -5 -4 -12 -10 -15 -5 -3 -10
-14 -10 -23 0 -11 7 -5 20 16 22 35 54 52 103 52 18 1 46 7 62 15 32 14 45 18
45 11z m470 -16 c34 -11 73 -20 87 -20 17 0 30 -10 45 -35 21 -37 38 -42 19
-7 -16 31 -14 34 17 19 15 -8 38 -17 52 -20 14 -4 30 -17 36 -29 6 -13 9 -17
7 -10 -2 8 -1 17 2 22 7 11 86 -8 106 -26 21 -19 35 -18 19 1 -11 13 -8 15 17
15 16 0 34 -5 41 -12 9 -9 12 -9 12 0 0 18 -44 32 -95 30 -52 -3 -66 7 -39 27
18 14 17 14 -9 5 -16 -5 -47 -9 -70 -9 l-42 1 38 8 c20 4 52 15 71 25 33 18
34 18 82 -6 28 -13 59 -39 72 -58 l22 -35 -31 -19 c-32 -21 -71 -24 -183 -13
-75 7 -119 22 -155 52 -16 13 -46 31 -68 40 -21 9 -50 25 -65 35 -14 11 -33
19 -42 19 -9 0 -16 5 -16 10 0 13 -3 13 70 -10z"/>
<path d="M3890 3650 c0 -8 5 -22 10 -30 9 -13 10 -13 10 0 0 8 -5 22 -10 30
-9 13 -10 13 -10 0z"/>
<path d="M1000 3436 c0 -9 7 -16 16 -16 9 0 14 5 12 12 -6 18 -28 21 -28 4z"/>
<path d="M1072 3248 c-9 -11 -32 -37 -49 -57 -33 -35 -40 -51 -24 -51 4 0 21
19 36 43 15 23 37 52 48 65 11 12 17 22 14 22 -4 0 -15 -10 -25 -22z"/>
<path d="M1036 3149 c-15 -11 -33 -18 -41 -15 -9 3 -22 -5 -32 -22 l-18 -26
-6 34 c-5 24 -6 19 -3 -16 3 -44 0 -54 -22 -75 -14 -13 -30 -33 -35 -44 -6
-11 6 -2 26 20 20 22 44 55 53 74 12 24 27 37 48 43 17 4 39 17 49 28 23 26
15 26 -19 -1z"/>
<path d="M1266 3262 c-3 -6 -1 -14 5 -17 15 -10 25 3 12 16 -7 7 -13 7 -17 1z"/>
<path d="M4021 3236 c13 -14 35 -39 48 -56 13 -17 25 -29 28 -27 2 3 -6 16
-19 30 -13 13 -31 36 -41 51 -10 14 -23 26 -29 26 -6 0 0 -11 13 -24z"/>
<path d="M4052 3145 c21 -22 39 -37 41 -34 2 2 -15 19 -37 38 l-41 35 37 -39z"/>
<path d="M4123 3110 c10 -14 24 -41 33 -61 8 -20 29 -46 47 -59 l32 -23 -32
35 c-18 18 -33 41 -33 50 0 9 -14 32 -32 50 -22 23 -26 25 -15 8z"/>
<path d="M4172 3110 c0 -14 2 -19 5 -12 2 6 2 18 0 25 -3 6 -5 1 -5 -13z"/>
<path d="M773 2765 c0 -22 2 -30 4 -17 2 12 2 30 0 40 -3 9 -5 -1 -4 -23z"/>
<path d="M726 2750 c3 -14 8 -51 11 -82 l5 -58 34 43 c19 23 34 46 34 51 0 5
-14 -9 -31 -30 -28 -34 -31 -36 -27 -14 3 14 9 34 13 45 5 16 5 17 -4 5 -8
-12 -11 -11 -16 5 -4 11 -11 29 -16 40 -8 17 -9 16 -3 -5z"/>
<path d="M811 2734 c0 -11 3 -14 6 -6 3 7 2 16 -1 19 -3 4 -6 -2 -5 -13z"/>
<path d="M781 2610 c-13 -11 -29 -20 -37 -20 -8 0 -14 -6 -14 -12 0 -7 -3 -24
-5 -38 -5 -24 -5 -23 6 2 6 15 26 37 45 48 19 12 34 26 34 31 0 12 -1 12 -29
-11z"/>
<path d="M690 2561 c0 -6 4 -13 10 -16 6 -3 7 1 4 9 -7 18 -14 21 -14 7z"/>
<path d="M702 2460 c0 -14 2 -19 5 -12 2 6 2 18 0 25 -3 6 -5 1 -5 -13z"/>
<path d="M646 2744 c-4 -14 -5 -29 -2 -31 3 -3 8 7 12 21 3 15 4 29 1 32 -2 3
-8 -7 -11 -22z"/>
<path d="M4331 2724 c0 -16 5 -38 12 -49 13 -17 15 -16 25 15 16 45 14 62 -2
25 -14 -31 -19 -27 -29 20 -3 13 -5 9 -6 -11z"/>
<path d="M4291 2724 c-1 -12 15 -45 34 -74 39 -58 48 -93 18 -69 -10 8 -6 0 9
-18 14 -18 28 -38 31 -45 11 -25 37 24 35 66 l-1 41 -6 -44 c-11 -78 -40 -57
-41 29 0 23 -3 30 -9 22 -6 -10 -14 -5 -31 22 -12 20 -26 49 -30 64 -7 23 -8
23 -9 6z"/>
<path d="M4290 2616 c0 -2 8 -10 18 -17 15 -13 16 -12 3 4 -13 16 -21 21 -21
13z"/>
<path d="M4391 2480 c0 -8 4 -24 9 -35 5 -13 9 -14 9 -5 0 8 -4 24 -9 35 -5
13 -9 14 -9 5z"/>
<path d="M980 2840 c0 -5 5 -10 10 -10 6 0 10 5 10 10 0 6 -4 10 -10 10 -5 0
-10 -4 -10 -10z"/>
<path d="M525 2401 c-3 -5 -1 -12 5 -16 12 -7 30 2 30 16 0 12 -27 12 -35 0z"/>
<path d="M4552 2388 c6 -18 28 -21 28 -4 0 9 -7 16 -16 16 -9 0 -14 -5 -12
-12z"/>
<path d="M840 2334 c0 -17 22 -14 28 4 2 7 -3 12 -12 12 -9 0 -16 -7 -16 -16z"/>
<path d="M667 2178 l4 -53 -20 24 c-27 30 -26 27 4 -33 14 -27 25 -59 26 -70
0 -21 1 -21 9 -1 12 28 12 37 0 30 -6 -4 -10 19 -10 62 0 37 -4 74 -9 81 -5 8
-6 -8 -4 -40z"/>
<path d="M711 2190 c0 -8 4 -24 9 -35 5 -13 9 -14 9 -5 0 8 -4 24 -9 35 -5 13
-9 14 -9 5z"/>
<path d="M631 2054 c0 -11 3 -14 6 -6 3 7 2 16 -1 19 -3 4 -6 -2 -5 -13z"/>
<path d="M640 2022 c0 -5 14 -21 30 -37 l30 -29 -1 35 c0 26 -2 29 -8 15 -7
-19 -8 -19 -29 2 -12 12 -22 18 -22 14z"/>
<path d="M742 2010 c0 -14 2 -19 5 -12 2 6 2 18 0 25 -3 6 -5 1 -5 -13z"/>
<path d="M725 1961 c-3 -12 -11 -21 -16 -21 -5 0 -8 -17 -8 -37 2 -33 3 -34 6
-9 3 16 12 40 20 53 9 13 13 26 10 29 -3 3 -8 -4 -12 -15z"/>
<path d="M4442 2217 c-6 -18 -12 -40 -11 -48 0 -8 7 4 15 25 8 22 13 44 11 49
-1 4 -8 -7 -15 -26z"/>
<path d="M4384 2166 c-3 -8 -4 -23 -2 -33 3 -11 6 -6 9 15 6 34 2 42 -7 18z"/>
<path d="M4462 2139 c-7 -11 -17 -17 -22 -14 -6 4 -10 -10 -10 -32 l0 -38 -20
25 -20 25 17 -42 18 -41 11 39 c7 22 20 51 29 65 9 14 15 27 13 29 -2 2 -9 -5
-16 -16z"/>
<path d="M4450 2001 c-6 -12 -19 -20 -28 -19 -9 2 -18 -5 -20 -14 -2 -10 1
-18 5 -18 14 0 67 59 61 66 -4 3 -11 -4 -18 -15z"/>
<path d="M4371 1964 c-1 -7 8 -22 19 -35 10 -13 19 -18 20 -11 0 6 -4 12 -8
12 -5 0 -14 10 -20 23 -6 12 -11 17 -11 11z"/>
<path d="M4401 1874 c0 -11 3 -14 6 -6 3 7 2 16 -1 19 -3 4 -6 -2 -5 -13z"/>
<path d="M4391 1834 c0 -11 3 -14 6 -6 3 7 2 16 -1 19 -3 4 -6 -2 -5 -13z"/>
<path d="M510 2188 c11 -18 20 -41 20 -52 0 -18 -1 -18 -27 -1 -25 16 -25 14
6 -19 19 -20 36 -36 38 -36 1 0 0 15 -3 33 -7 42 -35 107 -45 107 -5 0 0 -15
11 -32z"/>
<path d="M4542 2130 c0 -19 2 -27 5 -17 2 9 2 25 0 35 -3 9 -5 1 -5 -18z"/>
<path d="M530 1720 c0 -5 7 -10 15 -10 8 0 15 5 15 10 0 6 -7 10 -15 10 -8 0
-15 -4 -15 -10z"/>
<path d="M4556 1712 c-3 -6 -1 -14 5 -17 15 -10 25 3 12 16 -7 7 -13 7 -17 1z"/>
<path d="M764 1653 c9 -18 16 -49 16 -70 l0 -38 -21 25 -21 25 17 -30 c10 -16
28 -41 41 -56 28 -30 30 -40 7 -33 -13 4 -13 2 2 -6 11 -7 32 -26 47 -44 15
-17 28 -25 28 -18 0 6 -4 12 -9 12 -5 0 -14 14 -22 31 -7 18 -23 43 -36 57
-18 19 -23 37 -23 76 0 36 -6 58 -21 76 l-20 25 15 -32z"/>
<path d="M720 1521 c0 -10 39 -46 43 -40 2 2 -7 14 -20 26 -13 12 -23 19 -23
14z"/>
<path d="M869 1495 c17 -57 19 -60 20 -34 1 14 -6 34 -14 45 -14 18 -14 17 -6
-11z"/>
<path d="M4340 1649 c-7 -11 -10 -23 -7 -25 2 -2 9 7 15 21 14 30 7 33 -8 4z"/>
<path d="M4396 1655 c-9 -26 -7 -32 5 -12 6 10 9 21 6 23 -2 3 -7 -2 -11 -11z"/>
<path d="M4367 1494 c-10 -13 -14 -24 -10 -24 9 0 36 40 31 45 -2 2 -11 -8
-21 -21z"/>
<path d="M4308 1463 c6 -2 18 -2 25 0 6 3 1 5 -13 5 -14 0 -19 -2 -12 -5z"/>
<path d="M988 1163 c6 -2 18 -2 25 0 6 3 1 5 -13 5 -14 0 -19 -2 -12 -5z"/>
<path d="M1043 1153 c9 -2 25 -2 35 0 9 3 1 5 -18 5 -19 0 -27 -2 -17 -5z"/>
<path d="M1118 1143 c6 -2 18 -2 25 0 6 3 1 5 -13 5 -14 0 -19 -2 -12 -5z"/>
<path d="M1218 1003 c6 -2 18 -2 25 0 6 3 1 5 -13 5 -14 0 -19 -2 -12 -5z"/>
<path d="M4023 1143 c9 -2 23 -2 30 0 6 3 -1 5 -18 5 -16 0 -22 -2 -12 -5z"/>
<path d="M3888 993 c7 -3 16 -2 19 1 4 3 -2 6 -13 5 -11 0 -14 -3 -6 -6z"/>
<path d="M3918 899 c-10 -5 -18 -15 -18 -21 0 -7 7 -5 18 4 9 9 24 18 32 21
13 5 13 5 0 6 -8 0 -23 -4 -32 -10z"/>
<path d="M1350 737 c8 -8 28 -18 45 -22 38 -9 31 -2 -20 19 -31 13 -37 14 -25
3z"/>
<path d="M1541 700 c14 -31 19 -36 19 -24 0 6 -7 19 -16 30 -14 18 -14 18 -3
-6z"/>
<path d="M1455 693 c41 -21 42 -23 25 -33 -11 -7 -7 -10 17 -10 35 0 84 -16
93 -30 3 -5 11 -5 19 -1 9 6 6 10 -13 15 -14 3 -26 11 -26 17 0 6 -5 7 -10 4
-6 -4 -33 7 -60 24 -28 17 -56 31 -63 31 -6 -1 2 -8 18 -17z"/>
<path d="M1418 663 c7 -3 16 -2 19 1 4 3 -2 6 -13 5 -11 0 -14 -3 -6 -6z"/>
<path d="M1651 643 c7 -12 15 -20 18 -17 3 2 -3 12 -13 22 -17 16 -18 16 -5
-5z"/>
<path d="M1528 598 c5 -5 16 -8 23 -6 8 3 3 7 -10 11 -17 4 -21 3 -13 -5z"/>
<path d="M1690 594 c0 -2 15 -11 33 -20 27 -14 30 -15 19 -2 -11 14 -52 31
-52 22z"/>
<path d="M3690 710 c-18 -12 -2 -12 25 0 13 6 15 9 5 9 -8 0 -22 -4 -30 -9z"/>
<path d="M3603 664 c-30 -18 -43 -22 -43 -13 -1 10 -4 9 -10 -3 -6 -9 -24 -20
-42 -23 l-32 -7 40 -14 c48 -17 56 -17 26 0 -23 12 -23 13 20 29 24 9 50 17
58 17 7 0 10 3 7 7 -4 3 1 12 11 19 28 21 10 15 -35 -12z"/>
<path d="M3473 654 c-18 -14 -33 -32 -33 -40 0 -8 -4 -14 -8 -14 -5 0 -17 -7
-28 -15 -17 -14 -15 -14 20 0 21 8 41 15 45 15 3 0 0 4 -8 9 -11 7 -7 15 20
40 41 38 36 40 -8 5z"/>
<path d="M3668 653 c7 -3 16 -2 19 1 4 3 -2 6 -13 5 -11 0 -14 -3 -6 -6z"/>
<path d="M1975 670 c11 -5 38 -17 60 -26 l40 -18 -40 -6 -40 -7 51 -2 c27 0
59 -8 70 -16 32 -24 44 -19 33 14 -11 32 -44 71 -61 71 -6 0 1 -11 16 -25 14
-13 26 -31 26 -40 0 -13 -7 -11 -33 9 -18 14 -53 32 -76 41 -46 16 -79 20 -46
5z"/>
<path d="M1192 681 c4 -13 18 -16 19 -4 0 4 -5 9 -11 12 -7 2 -11 -2 -8 -8z"/>
<path d="M3900 671 c0 -6 5 -13 10 -16 6 -3 10 1 10 9 0 9 -4 16 -10 16 -5 0
-10 -4 -10 -9z"/>
<path d="M1820 660 c0 -5 5 -10 10 -10 6 0 10 5 10 10 0 6 -4 10 -10 10 -5 0
-10 -4 -10 -10z"/>
<path d="M1423 590 c14 -11 29 -20 34 -20 11 1 -37 40 -49 40 -6 0 1 -9 15
-20z"/>
<path d="M1535 520 l-20 -9 20 0 c11 0 27 4 35 9 13 9 13 10 0 9 -8 0 -24 -4
-35 -9z"/>
<path d="M2030 501 c19 -10 43 -28 53 -39 17 -19 17 -20 -14 -26 -18 -3 -30
-9 -27 -12 3 -3 23 -2 43 2 l37 7 -38 37 c-22 21 -50 41 -64 44 -19 5 -16 2
10 -13z"/>
<path d="M2190 468 l35 -23 -50 -6 c-27 -3 -40 -7 -27 -7 28 -2 28 -17 0 -36
-12 -9 -18 -16 -12 -16 6 0 21 11 33 24 19 21 30 23 84 21 34 -1 49 -1 32 2
-16 2 -47 17 -67 34 -20 16 -43 29 -50 29 -7 0 3 -10 22 -22z"/>
<path d="M1905 470 c27 -12 43 -12 25 0 -8 5 -22 9 -30 9 -10 0 -8 -3 5 -9z"/>
<path d="M1963 453 c9 -2 23 -2 30 0 6 3 -1 5 -18 5 -16 0 -22 -2 -12 -5z"/>
<path d="M2028 443 c7 -3 16 -2 19 1 4 3 -2 6 -13 5 -11 0 -14 -3 -6 -6z"/>
<path d="M3030 465 l-43 -44 41 2 c23 1 42 4 42 8 0 4 8 10 18 12 9 2 -3 3
-28 0 l-45 -4 37 36 c21 19 34 35 30 35 -4 0 -28 -20 -52 -45z"/>
<path d="M2948 483 c7 -3 16 -2 19 1 4 3 -2 6 -13 5 -11 0 -14 -3 -6 -6z"/>
<path d="M2900 455 c-15 -16 -37 -25 -64 -28 -22 -2 -14 -3 19 -2 50 2 65 -2
92 -23 18 -13 38 -22 45 -19 9 4 8 6 -3 6 -9 1 -24 10 -33 20 -17 19 -17 20 6
24 13 2 3 5 -21 6 -43 1 -44 1 -26 21 26 29 13 25 -15 -5z"/>
<path d="M3190 470 c-13 -9 -13 -10 0 -10 8 0 22 5 30 10 13 9 13 10 0 10 -8
0 -22 -5 -30 -10z"/>
<path d="M3138 453 c6 -2 18 -2 25 0 6 3 1 5 -13 5 -14 0 -19 -2 -12 -5z"/>
<path d="M3110 416 c0 -2 7 -7 16 -10 8 -3 12 -2 9 4 -6 10 -25 14 -25 6z"/>
<path d="M3402 379 c2 -6 8 -10 13 -10 5 0 11 4 13 10 2 6 -4 11 -13 11 -9 0
-15 -5 -13 -11z"/>
<path d="M2568 3684 c22 -19 22 -21 12 -134 -14 -153 -16 -160 -42 -160 -46 0
-3 -15 59 -20 58 -5 63 -4 44 8 -16 11 -21 25 -21 62 0 53 7 80 21 80 5 0 34
-38 64 -85 55 -85 55 -85 97 -85 42 0 42 0 20 16 -12 8 -43 46 -67 82 l-45 67
26 7 c43 11 64 37 64 79 0 64 -30 78 -190 95 -65 6 -65 6 -42 -12z m156 -35
c45 -35 30 -92 -30 -108 -63 -17 -70 -7 -58 83 6 42 9 46 34 46 15 0 39 -9 54
-21z"/>
<path d="M2242 3655 c-102 -22 -136 -35 -93 -35 27 0 31 -13 61 -159 22 -106
23 -114 7 -126 -9 -7 -17 -15 -17 -17 0 -3 57 7 128 21 l127 27 3 43 c2 28 0
41 -7 36 -6 -3 -11 -12 -11 -19 0 -23 -39 -48 -95 -61 -62 -15 -58 -18 -74 55
-15 67 -15 67 41 80 49 10 53 9 71 -12 18 -23 18 -23 11 22 -7 50 -23 88 -24
58 0 -22 -34 -44 -82 -52 l-36 -7 -12 57 c-7 31 -8 60 -3 65 4 4 35 11 67 15
54 7 60 5 77 -17 20 -25 24 -15 13 29 -8 27 -18 27 -152 -3z"/>
<path d="M3014 3586 c-42 -35 -38 -78 14 -151 59 -82 55 -135 -10 -135 -38 0
-75 38 -84 85 -8 42 -17 33 -28 -27 -6 -31 -4 -38 10 -38 9 0 30 -10 47 -22
40 -29 106 -31 135 -4 45 40 36 94 -29 176 -39 50 -44 75 -20 99 12 12 27 17
40 14 30 -8 61 -51 61 -84 0 -44 16 -35 29 15 14 56 14 56 -2 50 -7 -2 -28 7
-47 21 -42 31 -81 32 -116 1z"/>
<path d="M1948 3557 c-43 -25 -47 -34 -15 -33 23 1 28 -19 51 -182 l6 -43 -60
42 c-33 23 -77 56 -97 74 -33 28 -36 34 -24 49 18 22 11 20 -43 -10 -54 -30
-65 -44 -36 -44 11 0 79 -43 151 -96 72 -52 134 -93 137 -90 3 3 -5 78 -17
166 -18 128 -21 164 -11 175 17 21 1 18 -42 -8z"/>
<path d="M3343 3462 c10 -10 17 -23 17 -28 -1 -5 -34 -56 -74 -114 -62 -89
-77 -105 -99 -105 -35 1 -34 -5 6 -31 17 -11 45 -29 61 -40 l29 -19 -16 26
c-17 25 -16 27 60 138 72 107 78 113 104 107 16 -3 29 -4 29 -1 0 6 -117 85
-126 85 -4 0 0 -8 9 -18z"/>
<path d="M1550 3275 c-30 -30 -50 -55 -44 -55 5 0 15 5 21 11 16 16 29 6 128
-99 79 -83 87 -96 77 -113 -19 -30 -3 -22 47 23 52 48 64 65 31 48 -21 -11
-30 -5 -124 89 -93 94 -100 102 -88 122 25 39 6 29 -48 -26z"/>
<path d="M3529 3292 l-34 -31 40 6 c33 4 44 1 63 -20 l23 -24 -96 -89 c-53
-49 -103 -90 -111 -92 -8 -2 -21 2 -29 8 -30 25 -14 -3 32 -56 46 -54 64 -64
44 -25 -10 18 -4 28 56 84 38 35 84 78 104 95 l36 31 22 -22 c23 -26 26 -48
11 -78 -15 -28 2 -23 33 9 l27 28 -86 94 c-47 52 -89 99 -94 103 -4 5 -23 -5
-41 -21z"/>
<path d="M2360 3241 c-500 -110 -846 -562 -817 -1071 42 -737 820 -1196 1484
-875 310 150 523 442 574 784 16 114 7 303 -21 406 -99 370 -377 647 -748 747
-112 30 -355 35 -472 9z m549 -458 c15 15 132 12 163 -4 20 -10 128 -117 128
-127 0 -1 -15 0 -34 3 -26 5 -43 1 -75 -19 -36 -23 -40 -30 -35 -54 4 -15 11
-31 15 -36 12 -14 11 -29 -1 -21 -13 8 -13 -5 0 -25 5 -8 10 -10 10 -5 1 6 8
-3 16 -19 9 -16 12 -31 7 -35 -5 -3 -8 -40 -8 -81 0 -69 -3 -79 -34 -127 -19
-29 -37 -50 -41 -48 -4 3 -14 -10 -21 -28 -22 -53 -111 -135 -156 -142 -21 -3
-60 -10 -86 -16 -52 -12 -75 -5 -36 10 22 9 22 10 3 10 -11 1 -25 -4 -32 -11
-9 -9 -15 -9 -24 0 -15 15 -112 17 -103 2 4 -6 -2 -7 -17 -1 -15 5 -33 3 -53
-6 l-30 -13 30 1 c47 2 57 0 50 -11 -3 -5 -19 -10 -35 -10 -28 0 -28 0 -14
-30 9 -16 21 -33 27 -37 7 -5 19 -21 27 -38 12 -24 23 -31 52 -33 20 -2 44
-12 53 -23 10 -10 24 -19 31 -19 19 0 84 -32 84 -42 0 -13 -63 3 -92 23 -15
10 -32 19 -38 19 -5 0 -10 5 -10 10 0 6 -4 10 -9 10 -4 0 -6 -10 -4 -22 5 -24
40 -46 128 -80 l50 -19 -60 5 c-33 3 -84 10 -113 17 -50 10 -53 13 -48 35 8
29 -5 31 -29 4 -37 -41 -154 -60 -250 -41 -43 8 -43 8 25 34 8 3 -7 6 -35 6
-65 2 -90 16 -44 26 66 13 127 39 138 58 17 27 12 28 -44 12 -70 -22 -73 -19
-25 25 41 37 42 41 28 62 -8 13 -27 30 -41 38 -24 13 -30 13 -63 -5 -21 -11
-53 -32 -71 -47 -19 -15 -51 -32 -71 -39 -20 -7 -48 -20 -62 -29 -78 -54 -126
-80 -144 -80 -24 0 -54 30 -48 48 2 7 -1 12 -7 12 -6 0 -25 14 -43 30 -23 22
-27 30 -14 30 9 0 34 11 55 24 21 14 54 30 72 35 33 11 33 11 -11 6 -45 -4
-45 -4 -15 9 50 23 69 26 85 16 13 -9 13 -11 0 -20 -11 -8 -6 -9 20 -8 19 2
40 7 45 11 6 4 19 14 30 22 20 14 19 14 -4 15 -49 0 -8 14 60 21 39 3 76 12
82 19 10 10 8 11 -8 6 -24 -9 -19 -9 -82 -7 -45 1 -51 3 -46 20 6 23 84 45
195 55 3 1 10 4 14 9 7 6 -68 13 -91 7 -5 -1 -38 -9 -72 -16 -35 -8 -78 -20
-97 -28 -23 -9 -37 -11 -44 -4 -7 7 -18 4 -35 -7 -30 -19 -41 -42 -25 -51 6
-4 -5 -12 -23 -19 -61 -23 -104 -38 -117 -41 -22 -6 -3 -24 25 -24 21 0 23 -3
14 -14 -17 -20 -50 -16 -57 7 -8 27 4 84 23 102 14 15 17 14 34 -4 16 -17 23
-19 44 -9 13 6 22 14 20 18 -6 9 67 67 99 80 14 5 34 6 43 3 17 -6 17 -6 0 11
-17 17 -17 19 -1 38 10 10 24 16 31 14 7 -3 12 -1 10 4 -2 9 133 100 318 212
66 40 133 84 149 98 16 14 52 31 80 38 28 7 58 14 67 16 9 3 37 14 62 25 25
12 50 21 54 21 4 0 14 4 22 9 11 7 11 12 -2 32 -17 26 -16 90 2 111 6 7 21 26
33 42 l22 29 22 -26 c16 -19 24 -23 33 -14z m-279 -915 c0 -26 -36 -23 -54 4
-19 27 -21 55 -3 61 15 6 57 -42 57 -65z m683 3 c8 -8 0 -11 -26 -11 -20 0
-37 -4 -37 -9 0 -5 -12 -12 -27 -14 -28 -4 -28 -4 3 -6 16 0 35 4 41 10 6 6
21 8 34 4 l22 -7 -24 -14 c-23 -13 -15 -19 20 -15 7 2 10 -2 6 -8 -9 -16 11
-13 29 4 15 16 46 21 46 7 0 -18 -57 -31 -110 -24 -30 5 -66 5 -80 1 -21 -6
-22 -7 -5 -9 13 -1 8 -5 -15 -12 -19 -5 -39 -16 -43 -24 -4 -8 -17 -14 -27
-14 -11 0 -20 -4 -20 -9 0 -9 -60 -24 -68 -17 -2 3 7 15 21 28 l25 24 -52 0
c-39 0 -58 5 -72 18 -18 19 -17 19 49 12 69 -7 84 -2 45 14 -18 7 -12 9 29 8
42 -1 50 -4 42 -15 -17 -20 4 -16 27 5 11 11 26 22 34 25 8 4 1 6 -16 4 -27
-3 -30 0 -32 25 -1 15 -1 28 0 28 2 0 21 6 43 14 33 12 46 12 83 0 25 -7 50
-18 55 -23z m-195 -9 c4 -28 -26 -40 -90 -36 -26 2 -50 -1 -53 -7 -4 -5 -13
-9 -21 -9 -30 0 6 39 45 50 21 5 44 16 50 24 17 21 65 5 69 -22z m-253 -12
c18 -17 27 -19 48 -11 33 13 36 -2 5 -24 -14 -9 -24 -11 -26 -5 -2 5 -8 10
-13 10 -6 0 -7 -4 -4 -10 3 -5 1 -10 -4 -10 -6 0 -11 7 -11 15 0 8 -6 15 -14
15 -18 0 -29 16 -21 30 9 14 16 13 40 -10z m-605 -24 c0 -8 -13 -16 -30 -18
-20 -3 -30 0 -30 8 0 11 9 15 53 23 4 0 7 -5 7 -13z m990 -82 c0 -14 4 -23 10
-19 5 3 7 12 3 20 -3 8 0 15 7 15 6 0 8 -5 5 -10 -3 -6 1 -13 9 -16 27 -10 18
-34 -14 -41 -17 -3 -33 -10 -36 -14 -9 -15 -41 -10 -48 6 -3 10 1 15 12 15 10
0 13 3 6 8 -25 17 -23 41 4 51 40 14 42 13 42 -15z m-241 -25 c-8 -5 -22 -9
-32 -9 -15 0 -16 3 -7 20 9 17 14 18 32 9 17 -9 18 -13 7 -20z m371 1 c0 -5
-4 -10 -9 -10 -6 0 -13 5 -16 10 -3 6 1 10 9 10 9 0 16 -4 16 -10z"/>
<path d="M2993 2701 l-21 -18 35 -1 c27 -1 34 2 31 15 -4 23 -20 25 -45 4z"/>
<path d="M3120 2680 c20 -13 43 -13 35 0 -3 6 -16 10 -28 10 -18 0 -19 -2 -7
-10z"/>
<path d="M2075 2200 c-3 -5 -2 -10 4 -10 5 0 13 5 16 10 3 6 2 10 -4 10 -5 0
-13 -4 -16 -10z"/>
<path d="M2931 2126 c-16 -19 -11 -29 8 -17 7 5 12 14 9 21 -3 9 -8 7 -17 -4z"/>
<path d="M2280 2060 c0 -16 -6 -18 -37 -15 -30 3 -28 2 10 -7 33 -7 64 -7 98
0 36 7 47 6 40 -1 -17 -17 -13 -27 9 -27 13 0 18 5 14 15 -4 9 1 17 10 20 51
16 52 17 22 26 -16 4 -36 4 -46 -1 -10 -5 -19 -8 -21 -6 -2 2 -25 6 -51 9 -43
6 -48 5 -48 -13z"/>
<path d="M2292 2009 c2 -7 10 -15 17 -17 8 -3 12 1 9 9 -2 7 -10 15 -17 17 -8
3 -12 -1 -9 -9z"/>
<path d="M2162 1998 c3 -7 13 -15 22 -16 12 -3 17 1 14 10 -3 7 -13 15 -22 16
-12 3 -17 -1 -14 -10z"/>
<path d="M2420 1996 c0 -2 7 -7 16 -10 8 -3 12 -2 9 4 -6 10 -25 14 -25 6z"/>
<path d="M2135 1970 c-3 -6 1 -7 9 -4 18 7 21 14 7 14 -6 0 -13 -4 -16 -10z"/>
<path d="M2370 1910 c-15 -30 -17 -40 -7 -40 22 0 58 45 51 63 -10 27 -22 20
-44 -23z"/>
<path d="M2446 1928 c-11 -35 -13 -57 -6 -53 5 3 11 1 15 -5 12 -19 25 1 25
36 0 24 -5 34 -15 34 -9 0 -17 -6 -19 -12z"/>
<path d="M3203 1875 c-43 -19 -42 -26 2 -12 19 6 35 14 35 19 0 10 2 10 -37
-7z"/>
<path d="M1381 3083 c-31 -49 -33 -65 -6 -43 20 17 48 7 129 -44 l68 -44 -38
-6 c-22 -3 -79 -10 -129 -16 -126 -15 -128 -16 -148 -49 -20 -34 -22 -50 -5
-33 20 20 36 14 149 -54 102 -61 109 -67 109 -97 0 -32 0 -32 30 18 34 57 38
75 11 51 -22 -20 -29 -17 -139 49 -96 58 -103 53 111 80 81 10 147 21 147 24
0 3 -50 35 -111 71 -131 77 -152 95 -144 121 11 33 -4 21 -34 -28z"/>
<path d="M3520 2892 c0 -18 33 -82 42 -82 4 0 5 6 2 14 -7 17 25 36 60 36 21
0 31 -10 55 -59 l30 -58 -33 -32 c-25 -24 -35 -28 -44 -19 -19 19 -14 2 13
-52 27 -54 35 -61 32 -32 0 11 46 76 103 146 58 70 107 132 109 138 2 7 -9 9
-35 5 -22 -3 -99 -9 -171 -13 -101 -5 -136 -4 -148 6 -10 8 -15 9 -15 2z m272
-49 c-11 -16 -31 -39 -45 -52 l-26 -23 -20 41 c-12 22 -21 42 -21 45 0 8 33
14 83 15 l48 1 -19 -27z"/>
<path d="M1177 2684 c-3 -11 -9 -37 -13 -59 l-7 -40 20 24 19 23 103 -23 c124
-27 151 -45 151 -98 0 -55 -31 -91 -78 -91 -39 1 -192 32 -211 44 -6 4 -11 16
-11 27 0 35 -17 11 -24 -33 -4 -24 -10 -54 -13 -68 l-6 -25 19 23 19 22 90
-20 c118 -26 165 -26 194 1 29 28 41 60 41 115 0 67 -33 96 -135 118 -116 25
-129 30 -141 55 -11 21 -12 22 -17 5z"/>
<path d="M3907 2558 c-22 -8 -36 -26 -59 -77 -16 -36 -37 -74 -45 -83 -36 -40
-93 -8 -93 50 0 23 10 41 38 68 36 36 36 37 10 30 -58 -14 -82 -26 -70 -38 5
-5 8 -25 5 -43 -11 -70 35 -135 96 -135 35 0 77 46 100 110 32 88 88 115 111
54 12 -31 4 -51 -34 -93 -31 -33 -31 -34 -6 -27 14 3 37 9 53 12 25 6 39 24
17 24 -5 0 -9 22 -9 48 2 61 -12 87 -52 101 -18 6 -32 11 -33 10 -1 0 -14 -5
-29 -11z"/>
<path d="M1409 2140 c-4 -23 -14 -28 -104 -51 -161 -41 -162 -41 -186 -16 -20
21 -21 21 -16 2 4 -11 9 -33 13 -50 10 -45 17 -53 24 -25 5 22 17 28 90 47
156 41 155 43 35 -51 -104 -83 -128 -106 -108 -106 13 0 223 -38 253 -46 19
-5 -2 -14 -90 -36 l-115 -29 -19 23 -19 23 7 -34 c3 -19 12 -53 18 -75 9 -33
13 -36 16 -18 5 30 17 35 156 68 115 27 119 27 132 9 13 -18 14 -17 13 6 -3
68 -7 72 -114 90 -55 10 -115 21 -133 24 l-33 6 103 81 c57 45 104 82 106 84
2 1 -3 24 -11 51 -11 40 -15 44 -18 23z"/>
<path d="M4019 2056 c-8 -8 -81 -26 -164 -41 -82 -15 -156 -31 -163 -35 -9 -4
32 -40 123 -104 75 -54 140 -107 144 -119 8 -21 8 -21 14 -2 3 11 8 36 12 55
5 28 4 31 -5 18 -15 -24 -29 -23 -64 5 l-28 23 13 57 c7 32 15 60 18 62 4 2
23 6 43 10 34 6 39 5 47 -16 7 -21 10 -16 21 34 13 64 11 73 -11 53z m-129
-92 c0 -12 -23 -94 -26 -94 -8 0 -105 73 -101 76 12 12 127 29 127 18z"/>
<path d="M3616 1746 c-28 -48 -34 -68 -14 -48 19 19 32 15 119 -37 72 -43 79
-51 58 -55 -23 -5 -246 -36 -260 -36 -8 0 -49 -63 -49 -74 0 -4 11 1 24 9 23
16 28 14 132 -50 116 -71 127 -80 118 -107 -9 -31 3 -20 30 26 28 48 34 68 14
48 -7 -7 -18 -12 -26 -12 -15 0 -191 102 -192 111 0 3 73 16 162 28 89 12 164
24 166 26 3 2 -11 13 -29 24 -202 120 -224 136 -222 164 1 15 0 27 -2 27 -2 0
-15 -20 -29 -44z"/>
<path d="M1465 1559 c-71 -16 -144 -27 -162 -25 l-32 5 26 -40 c28 -42 38 -49
29 -21 -5 13 1 22 19 30 49 22 68 15 103 -39 l33 -51 -23 -34 c-25 -37 -37
-41 -57 -21 -20 18 16 -42 46 -78 14 -16 23 -23 20 -15 -6 19 9 47 99 193 41
65 74 120 74 123 0 9 -50 1 -175 -27z m90 -26 c-10 -14 -26 -41 -37 -60 -11
-18 -21 -33 -23 -33 -8 0 -55 83 -50 88 5 6 87 27 119 31 4 0 0 -11 -9 -26z"/>
<path d="M1760 1413 c0 -5 5 -14 12 -21 8 -8 -6 -34 -61 -106 -89 -116 -104
-130 -130 -121 -12 3 -21 4 -21 1 0 -2 47 -41 105 -86 l106 -82 35 27 c41 32
40 39 -4 24 -28 -9 -38 -8 -74 14 -87 51 -87 48 6 167 73 92 86 105 111 103
16 -1 24 1 19 6 -49 42 -104 82 -104 74z"/>
<path d="M3310 1333 c50 -151 89 -299 84 -316 -5 -17 -1 -15 30 9 40 32 46 45
16 37 -11 -3 -20 -3 -20 0 0 2 -7 20 -15 40 l-14 35 49 41 49 42 41 -21 c43
-22 47 -29 28 -48 -29 -29 8 -9 46 25 48 43 54 53 28 46 -12 -3 -78 24 -167
66 -82 39 -152 71 -156 71 -4 0 -4 -12 1 -27z m109 -72 l53 -28 -41 -32 c-23
-19 -43 -32 -45 -30 -5 6 -36 102 -36 111 0 12 11 9 69 -21z"/>
<path d="M3050 1194 c-63 -29 -116 -58 -118 -64 -5 -13 18 -70 27 -70 4 0 6
13 3 30 -3 24 1 32 29 49 19 12 36 21 39 21 3 0 31 -57 63 -127 54 -119 56
-128 40 -145 -22 -24 -9 -22 62 12 51 24 56 29 32 29 -26 1 -33 10 -83 117
-30 63 -54 121 -54 129 0 7 14 18 31 25 27 12 33 11 60 -9 16 -12 29 -19 29
-17 0 11 -34 76 -39 75 -3 0 -58 -25 -121 -55z"/>
<path d="M2060 1044 c-59 -64 -116 -117 -130 -121 -24 -6 -23 -7 15 -24 50
-22 61 -23 46 -5 -14 17 -5 41 26 68 18 16 22 16 75 -3 46 -18 57 -26 60 -48
6 -49 -2 -73 -23 -68 -10 3 -19 3 -19 1 0 -5 67 -33 99 -41 23 -6 24 -4 13 10
-12 15 -31 193 -32 305 0 27 -4 42 -12 41 -7 0 -60 -52 -118 -115z m88 -47
l-3 -34 -48 16 -49 17 49 54 48 54 3 -37 c2 -20 2 -52 0 -70z"/>
<path d="M2781 1109 c-49 -9 -66 -19 -34 -19 26 0 29 -9 58 -155 l24 -120 -21
-17 c-24 -22 -15 -22 67 -4 33 8 50 14 37 15 -29 1 -37 21 -62 156 -25 136
-25 134 3 145 22 9 22 9 -3 8 -14 0 -45 -4 -69 -9z"/>
<path d="M2473 1089 c-97 -29 -142 -165 -85 -261 21 -37 87 -68 141 -68 57 0
137 38 118 56 -3 3 -20 -4 -38 -15 -122 -75 -234 63 -169 207 22 49 73 77 121
67 30 -7 79 -57 79 -81 0 -8 5 -14 10 -14 6 0 10 24 10 53 l0 54 -32 0 c-18 0
-53 3 -78 6 -25 3 -59 2 -77 -4z"/>
<path d="M2725 58 c17 -27 51 -45 62 -34 4 3 0 6 -7 6 -8 0 -27 12 -43 28
l-30 27 18 -27z"/>
</g>
</svg>
